<svg width="321" height="206" xmlns="http://www.w3.org/2000/svg">
 <defs>
  <clipPath id="clip0">
   <rect id="svg_1" height="438" width="438" y="180" x="112"/>
  </clipPath>
  <clipPath id="clip1">
   <rect id="svg_2" height="331" width="331" y="0" x="0"/>
  </clipPath>
  <clipPath id="clip2">
   <rect id="svg_3" height="331" width="331" y="0" x="0"/>
  </clipPath>
  <clipPath id="clip3">
   <rect id="svg_4" height="331" width="331" y="0" x="0"/>
  </clipPath>
  <clipPath id="clip4">
   <rect id="svg_5" height="331" width="331" y="54" x="54"/>
  </clipPath>
  <clipPath id="clip5">
   <rect id="svg_6" height="331" width="331" y="-1" x="129"/>
  </clipPath>
  <clipPath id="clip6">
   <rect id="svg_7" height="331" width="331" y="-1" x="129"/>
  </clipPath>
  <clipPath id="clip7">
   <rect id="svg_8" height="331" width="330" y="108" x="108"/>
  </clipPath>
  <clipPath id="clip8">
   <rect id="svg_9" height="331" width="330" y="108" x="108"/>
  </clipPath>
  <clipPath id="clip9">
   <rect id="svg_10" height="331" width="330" y="108" x="108"/>
  </clipPath>
 </defs>
 <g>
  <title>Layer 1</title>
  <defs transform="translate(452) translate(0, 452)">
   <clipPath id="svg_27">
    <rect height="96" width="96" y="764" x="1044"/>
   </clipPath>
  </defs>
  <g id="svg_31">
   <path id="svg_24" d="m313.13708,98.52715l-46.67104,0l0,-82.97074l46.67104,0l0,82.97074zm-28.52119,-93.34209l10.37134,0c1.42597,0 2.59284,1.16687 2.59284,2.59284c0,1.42597 -1.16687,2.59284 -2.59284,2.59284l-10.37134,0c-1.42597,0 -2.59284,-1.16687 -2.59284,-2.59284c0,-1.42597 1.16687,-2.59284 2.59284,-2.59284zm33.70686,-5.18567l-57.04239,0c-1.42597,0 -2.59284,1.16687 -2.59284,2.59284l0,108.8991c0,1.42597 1.16687,2.59284 2.59284,2.59284l57.04239,0c1.42597,0 2.59284,-1.16687 2.59284,-2.59284l0,-108.8991c0,-1.42597 -1.16687,-2.59284 -2.59284,-2.59284z"/>
   <g id="svg_28">
    <path d="m99.7043,173.03645l-88.6266,0l0,-59.0844l88.6266,0l0,59.0844zm3.69278,-70.16273l-96.01215,0c-4.06205,0 -7.38555,3.3235 -7.38555,7.38555l0,66.46995c0,4.06205 3.3235,7.38555 7.38555,7.38555l36.92775,0l0,11.07833l-16.61749,0l0,11.07833l55.39163,0l0,-11.07833l-16.61749,0l0,-11.07833l36.92775,0c4.06205,0 7.38555,-3.3235 7.38555,-7.38555l0,-66.46995c0,-4.06205 -3.3235,-7.38555 -7.38555,-7.38555z"/>
    <path d="m162.48148,121.33759l-36.92775,0l0,-11.07833l36.92775,0l0,11.07833zm0,18.46388l-36.92775,0l0,-11.07833l36.92775,0l0,11.07833zm-18.46388,55.39163c-3.13886,0 -5.53916,-2.4003 -5.53916,-5.53916c0,-3.13886 2.4003,-5.53916 5.53916,-5.53916c3.13886,0 5.53916,2.4003 5.53916,5.53916c0,3.13886 -2.4003,5.53916 -5.53916,5.53916zm18.46388,-92.31938l-36.92775,0c-4.06205,0 -7.38555,3.3235 -7.38555,7.38555l0,88.6266c0,4.06205 3.3235,7.38555 7.38555,7.38555l36.92775,0c4.06205,0 7.38555,-3.3235 7.38555,-7.38555l0,-88.6266c0,-4.06205 -3.3235,-7.38555 -7.38555,-7.38555z"/>
   </g>
   <g id="svg_30">
    <path id="svg_20" d="m241.14742,185.65739l46.56547,0c1.36422,0 2.46945,-1.16084 2.46945,-2.59284l0,-23.33552l-6.17345,0l0,-6.66368c-2.17491,-0.58947 -3.69682,-2.64564 -3.70436,-5.00389l0,-31.11403l3.70436,0l0,-11.66795l17.28617,0l0,11.66795l3.704,0l0,31.11403c-0.00718,2.35825 -1.52909,4.41442 -3.704,5.00389l0,6.66368l-6.17381,0l0,23.33552c0,4.296 -3.31679,7.77851 -7.40836,7.77851l-46.56547,0l0,-5.18567zm55.20873,-75.19224l-7.40836,0l0,6.48228l7.40836,0l0,-6.48228z" opacity="undefined"/>
    <path id="svg_29" d="m210.3025,179.58332l6.66368,0l0,6.17345l24.63175,0l0,4.93891l-24.63175,0l0,6.17381l-6.66368,0c-0.58947,2.17491 -2.64564,3.69682 -5.00427,3.704l-31.11403,0l0,-3.704l-11.66757,0l0,-17.28617l11.66757,0l0,-3.70436l31.11403,0c2.35863,0.00754 4.4148,1.52944 5.00427,3.70436zm-42.6002,4.93891l0,7.40836l6.4819,0l0,-7.40836l-6.4819,0z" opacity="undefined"/>
   </g>
  </g>
 </g>
</svg>