<?xml version="1.0" encoding="utf-8"?>
<!-- Generator: Adobe Illustrator 26.3.1, SVG Export Plug-In . SVG Version: 6.00 Build 0)  -->
<svg version="1.1" id="图层_1" xmlns="http://www.w3.org/2000/svg" xmlns:xlink="http://www.w3.org/1999/xlink" x="0px" y="0px"
	 viewBox="0 0 530.77 505.21" style="enable-background:new 0 0 530.77 505.21;" xml:space="preserve">
<g fill="#00000033">
	<path d="M216.74,505.21c-1.87-0.84-3.72-1.72-5.61-2.5c-6.72-2.74-13.24-5.82-18.88-10.5c-3.68-3.06-6.45-6.89-9.31-10.65
		c-3.02-3.96-5.99-7.97-8.86-12.04c-2.49-3.53-4.83-7.17-7.21-10.77c-7.21-10.91-13.55-22.29-18.85-34.25
		c-3.74-8.44-7.29-16.96-9.55-25.93c-1.17-4.65-1.97-9.41-2.8-14.14c-0.62-3.56-1.02-7.16-1.54-10.73
		c-0.07-0.48-0.28-0.94-0.43-1.39c-10.6-1.57-18.85-6.58-24.49-15.79c0.94-0.98,2.61-1.28,1.91-2.98c-2.72-0.16-3.89-1.13-4.57-4.48
		c-1.56-7.65-0.46-14.96,3.22-21.86c0.32-0.59,0.47-1.78,1.71-1.03c0.05,0.03,0.36-0.28,0.47-0.48c0.76-1.44,1.96-2.41,3.31-3.27
		c1.46-0.93,2.79-2.07,4.24-3c2.72-1.75,5.41-3.59,8.28-5.09c3.14-1.64,6.45-2.92,9.92-4.46c-0.3,0.65-0.55,1.22-0.81,1.79
		c-1.55,3.3-3.13,6.59-4.65,9.91c-0.36,0.8-0.69,1.45-1.64,1.69c-0.54,0.13-1.03,0.52-1.49,0.86c-1.66,1.22-1.78,1.69-1.01,3.56
		c0.22,0.54,0.51,1.05,0.66,1.61c0.48,1.79,0.81,3.56-0.92,4.98c-0.27,0.22-0.29,0.75-0.45,1.22c1.74,1.32,2.33,3.25,2.28,5.35
		c-0.05,2.03,1.18,3.29,2.52,4.34c1.11,0.86,2.51,0.74,3.83-0.28c-1.62-1.68-0.65-3.61-0.29-5.38c1.25-6.16,2.49-12.35,4.15-18.41
		c1.38-5.02,3.35-9.88,5.06-14.81c0.48-1.38,0.96-2.76,1.51-4.36c-2.72-0.28-4.94,0.45-7.19,0.8c-8.85,1.38-17.69,2.86-26.54,4.21
		c-2.69,0.41-5.43,0.58-8.15,0.76c-2.02,0.13-2.03,0.06-3.36-1.64c-1.35,0.59-2.85,0.65-4.24,1.56c-0.97,0.63-2.54,0.34-4.05,0.48
		c0-1.55,0-2.82,0-4.43c-1.6,1.18-3.03,2.23-4.99,3.68c-3.14,0.31-6.45-1.34-9.5-3.29c-5.42-3.46-10.08-7.86-14.45-12.57
		c-0.09-0.1-0.06-0.31-0.13-0.79c0.71,0.25,1.3,0.4,1.84,0.65c1.68,0.8,3.42,1.18,5.31,1.16c4.75-0.06,9.5,0.08,14.25-0.05
		c3.81-0.1,7.61-0.46,11.42-0.74c4.28-0.31,8.57-0.56,12.83-1.02c6.92-0.75,13.8-1.74,20.51-3.68c4.38-1.27,8.82-2.37,13.19-3.69
		c1.89-0.57,3.64-1.74,5.67-0.59c0.59-0.52,1.07-0.98,1.59-1.39c0.97-0.76,1.97-0.98,3.23-0.56c2.62,0.87,3.9,0.35,4.9-2.14
		c0.42-1.05,1.07-1.61,1.9-2.15c0.76-0.5,1.5-1.02,2.19-1.48c-0.51-0.89-0.97-1.72-1.58-2.79c-1.01-0.07-2.33-0.23-3.65-0.23
		c-4.74,0-9.48,0.15-14.21,0.07c-2.9-0.05-5.8-0.42-8.7-0.62c-2.49-0.17-4.98-0.25-7.46-0.47c-5.86-0.53-11.71-1.17-17.57-1.66
		c-2.07-0.17-4.15-0.14-6.05-1.15c-0.58-0.31-1.27-0.56-1.64-1.05c-0.82-1.08-1.77-1.08-2.87-0.66c-1,0.38-1.96,0.87-2.98,1.17
		c-0.6,0.18-1.3,0.23-1.92,0.13c-7.82-1.27-15.5-3.16-23.05-5.48c-6.11-1.88-12.13-4.11-18.04-6.54
		c-6.45-2.64-12.88-5.42-19.07-8.62c-7.14-3.69-14.08-7.81-20.96-11.98c-1.85-1.12-3.39-2.96-4.65-4.77
		c-1.75-2.5-3.09-5.29-4.62-7.95c-0.37-0.64-0.82-1.25-1.15-1.91c-0.11-0.21,0.04-0.55,0.1-1.02c1.19,0.76,2.19,1.39,3.19,2.03
		c0.16-0.1,0.33-0.19,0.49-0.29c-0.13-0.62-0.07-1.42-0.44-1.83c-0.76-0.86-1.66-1.68-2.66-2.22c-1.59-0.87-2.26-2.26-3.18-4.33
		c11.22,6.78,22.6,11.83,34.64,16.49c0.01,0.15,0.09,0.78,0.12,1.41c0.07,1.33,0.89,2.04,2.07,1.48c1.77-0.85,3.34-0.49,5.01,0.17
		c4.55,1.8,9.07,3.67,13.69,5.29c4.69,1.64,9.46,3.04,14.21,4.49c2.37,0.72,4.77,1.41,7.18,1.98c5.41,1.26,10.82,2.53,16.26,3.61
		c4.63,0.92,9.32,1.59,13.98,2.35c0.57,0.09,1.16,0.12,1.74,0.1c1.78-0.08,3.46,0.06,5.01,1.12c0.58,0.39,1.38,0.46,2.15,0.7
		c0.4,1.13-0.69,2.66,1,3.46c1.11,0.53,2.06,1.48,3.57,0.59c-0.78-1.86-1.57-3.74-2.54-6.05c4.18,1.85,8.22,1.48,12.23,1.5
		c1.39,0,2.78,0.45,4.18,0.54c2.06,0.13,4.13,0.17,6.2,0.18c5.29,0.01,10.59,0.05,15.88-0.06c3.38-0.07,6.76-0.42,10.14-0.58
		c2.9-0.14,5.84,0.03,8.7-0.37c2-0.28,3.99-1.11,5.82-2.03c1.38-0.7,1.18-2.48-0.26-2.86c-6.3-1.68-11.54-5.44-17.09-8.57
		c-4.71-2.65-9.26-5.57-13.88-8.38c-0.5-0.3-1-0.61-1.45-0.97c-1.39-1.11-1.53-1.82-0.7-3.45c0.41-0.8,0.84-1.59,1.4-2.63
		c-2.75-0.48-5.26-0.9-7.76-1.38c-0.54-0.1-1.15-0.29-1.53-0.65c-1.89-1.76-1.86-1.79-4.28-0.97c-2.74-2.29-5.97-4.09-8.19-7.11
		c-0.38-0.51-0.98-0.86-1.45-1.31c-0.76-0.74-1.53-1.49-2.24-2.27c-0.44-0.48-0.72-1.15-1.22-1.55c-1.27-1.05-2.21-2.21-1.87-4.01
		c-0.9-0.34-1.74-0.54-2.43-0.95c-1.47-0.88-2.93-1.65-4.04-3.17c-1.44-1.99-3.3-3.71-5.15-5.35c-2.53-2.24-3.91-5.03-4.64-8.25
		c-0.14-0.6-0.44-1.17-0.66-1.73c-2.91,0.72-2.84,0.67-4.52-1.76c-4.16-6.04-7.71-12.45-10.71-19.11
		c-2.96-6.57-5.5-13.36-7.73-20.22c-0.86-2.65-0.73-5.79-0.39-8.63c0.47-3.94,1.7-7.77,3.5-11.6c0.52,0.45,0.97,0.82,1.41,1.2
		c0.24-0.27,0.44-0.49,0.77-0.87c0.82,1.61,1.68,3.1,2.35,4.67c0.51,1.21,0.23,2.44-0.65,3.63c0.45,0.39,0.85,0.8,1.31,1.1
		c0.83,0.53,2.58,2.31,3.08,3.21c1.63,2.9,3.25,5.8,4.9,8.68c0.74,1.29,1.59,2.52,2.32,3.82c0.37,0.66,1.16,1.24,0.46,2.22
		c-0.16,0.22,0.22,0.91,0.47,1.31c0.91,1.47,1.84,2.94,2.84,4.36c0.39,0.55,0.99,0.96,1.51,1.42c0.16,0.14,0.49,0.23,0.5,0.37
		c0.39,3.15,2.93,5.05,4.41,7.56c0.51,0.87,1.66,1.38,2.73,1.79c0.47,1.06,0.93,2.12,1.4,3.18c0.13,0.3,0.47,0.65,0.4,0.88
		c-0.97,3.05,1.44,4.23,3.29,5.35c1.31,0.79,2.15,1.7,2.75,2.98c0.79,1.68,2,2.96,3.5,4.06c1.2,0.88,2.17,2.06,3.36,2.95
		c3.18,2.36,6.42,4.65,9.65,6.95c3.92,2.79,7.79,5.66,11.79,8.33c4.13,2.75,8.4,5.28,12.61,7.92c0.63,0.4,1.2,0.9,1.84,1.28
		c3.69,2.23,7.37,4.48,11.11,6.63c3.86,2.23,7.96,4.09,11.61,6.61c2.98,2.07,6.41,3.05,9.47,4.83c0.9,0.52,1.86,1.01,2.85,1.3
		c1.81,0.53,3.17-0.69,4.56-1.52c0.32-0.19,0.52-1.07,0.36-1.46c-0.22-0.57-0.75-1.1-1.28-1.44c-7.05-4.52-13.23-10.03-18.81-16.26
		c-4.1-4.58-7.94-9.37-11.27-14.55c-2.15-3.35-4.39-6.65-6.64-10.04c0.49-0.36,0.83-0.62,1.22-0.91c-0.36-0.56-0.7-1.03-0.97-1.54
		c-0.4-0.77-1-1.39-0.54-2.5c0.22-0.51-0.53-1.43-0.9-2.29c0.48-0.58,1.03-1.24,1.57-1.89c-0.06-0.16-0.12-0.32-0.17-0.48
		c-0.76,0.09-1.52,0.19-2.28,0.28c-1.81,0.21-2.1-0.02-2.55-1.78c-0.14-0.55-0.4-1.08-0.64-1.59c-1.53-3.22-3.07-6.43-4.62-9.64
		c-0.22-0.45-0.44-0.9-0.72-1.31c-2.65-3.9-4.09-8.33-5.56-12.74c-0.92-2.76-1.72-5.57-2.8-8.26c-1.11-2.75-0.97-5.33,0.38-8.09
		c-0.62,0-1.13,0-1.81,0c-0.54-1.63-1.14-3.15-1.49-4.88c-0.69-3.46-1.95-6.8-2.97-10.19c-0.24-0.79-0.61-1.55-0.75-2.35
		c-0.75-4.32-1.51-8.65-2.16-12.99c-0.6-4.02-1.12-8.06-1.58-12.1c-0.37-3.27-0.62-6.56-0.88-9.84c-0.1-1.24,0.28-2.13,1.8-2
		c0.29,0.02,0.65-0.13,0.88-0.32c1.9-1.61,4.11-1.97,6.53-1.87c0.92,0.04,1.85-0.5,2.86-0.79c-0.26-0.95-0.46-1.65-0.67-2.42
		c-1.94-0.55-3.67,0.41-5.73,1.03c0.69-1.61,1.46-2.69,2.96-3.01c1.24-0.27,2.03-1.03,2.3-2.19c0.39-1.68,1.51-2.93,2.3-4.38
		c0.61-1.12,1.16-2.28,1.8-3.56c1.14,1.77,1.15,3.73,1.41,5.61c0.88,6.32,1.71,12.64,2.61,18.95c0.57,4.01,1.17,8.02,1.9,12.01
		c1.01,5.45,2.15,10.88,3.25,16.32c0.41,2.02,0.85,4.04,1.34,6.05c1.89,7.83,4.37,15.48,7.23,23c1.14,3,2.83,5.8,4.18,8.73
		c0.41,0.88,0.54,1.9,0.78,2.86c0.42,1.73,1.5,3.26,1.3,5.21c-0.11,1.01,0.71,1.52,1.83,1.53c1.15,0.01,1.86,0.57,1.64,1.9
		c-0.07,0.45-0.09,1.03,0.13,1.39c0.8,1.36,2.47,1.82,2.93,3.78c0.34,1.45,2.23,2.56,3.47,3.78c1.12,1.1,2.36,2.11,2.4,3.88
		c0,0.15,0.05,0.37,0.15,0.43c1.26,0.75,1.65,1.71,1.53,3.28c-0.12,1.52-0.95,2.38-1.77,3.38c-0.05,0.06-0.07,0.15-0.14,0.31
		c0.46,1.25,1.46,1.03,2.43,0.77c0.64-0.17,1.23-0.51,1.87-0.66c1.22-0.3,2.21-0.03,3.05,1.06c1.96,2.57,3.93,5.14,6.06,7.56
		c2.29,2.59,4.75,5.04,7.17,7.51c1.67,1.71,3.44,3.32,5.1,5.04c0.76,0.79,0.82,2.12,1.97,2.69c0.17,0.08,0.28,0.68,0.17,0.9
		c-1.13,2.21,0.76,3.21,1.98,3.9c2.73,1.55,4.88,3.66,7.14,5.75c1.34,1.24,3.27,1.82,4.89,2.77c2.4,1.4,5.09,1.62,7.71,1.72
		c4.63,0.18,9.27,0.06,13.9-0.06c1.76-0.04,3.42-0.63,4.71-2.05c-0.38-1-2.06-1.59-0.78-2.87c-0.35-0.24-0.49-0.42-0.61-0.41
		c-2.25,0.26-3.63-1.14-5.05-2.53c-4.28-4.2-8.25-8.68-11.92-13.42c-0.75-0.97-1.59-1.88-2.7-3.18c0.78,0.2,1.17,0.23,1.48,0.4
		c2.78,1.49,5.55,3.01,8.32,4.52c1.58,0.86,3.49,1.12,4.71,2.65c0.23,0.29,0.73,0.37,1.12,0.51c0.63,0.22,1.38,0.54,1.74-0.28
		c0.19-0.43,0.1-1.09-0.09-1.55c-0.37-0.89-0.9-1.7-1.07-2.8c0.28,0.21,0.66,0.37,0.84,0.64c2.04,3.21,4.96,5.43,8.1,7.48
		c1.22,0.79,2.08,2.15,3.06,3.29c0.64,0.74,1.16,1.59,1.8,2.34c1.09,1.3,2.54,1.43,4.05,1.18c2.53-3.04,4.82-6.13,8.27-8.32
		c1.97-1.25,4.06-2.84,5.32-5.07c0.3-0.54,0.83-0.94,1.62-1.19c-0.62,1.2-1.24,2.41-1.89,3.67c0.78,0.95,1.73,0.85,2.78,0.28
		c2.18-1.2,4.35-2.41,6.56-3.56c2.24-1.17,4.52-2.27,6.92-3.27c-2.65,3.71-4.65,7.96-8.94,10.25c-0.9,0.48-1.61,0.98-1.92,2.11
		c-0.56,2.02-1.91,3.23-4.16,3.23c-0.83,0-1.65,0.16-2.55,0.26c-0.32,0.53-0.66,1.08-0.99,1.62c0.67,0.14,1.36,0.28,2.1,0.44
		c0.22,2.36-2.7,2.5-2.8,4.73c1.28,0.96,3.07,0.67,4.69,0.9c1.79,0.24,3.62,0.26,5.43,0.27c1.68,0,3.36-0.14,5.04-0.23
		c3.21-0.17,6.42-0.39,9.63-0.47c1.12-0.03,1.68-0.71,2.16-1.45c0.84-1.29,2-2.15,3.21-3.05c1.08-0.81,1.81-2.09,2.67-3.17
		c0.39-0.49,0.65-1.11,1.11-1.52c0.73-0.64,1.66-1.07,2.35-1.74c3.4-3.3,7.03-6.32,10.4-9.68c2.93-2.92,5.68-6.01,8.63-8.91
		c0.87-0.85,1.45-1.71,1.17-3.05c-0.17-0.83,0.19-1.6,1.12-1.99c1.49-0.64,2.55-1.64,3.31-3.19c0.53-1.09,1.9-1.74,2.71-2.73
		c0.45-0.55,1.62-1,0.82-2.18c-0.11-0.16,0.57-1.23,0.96-1.27c1.53-0.17,2.01-1.43,2.62-2.4c1.55-2.49,3.7-4.59,4.73-7.44
		c0.18-0.49,1.19-0.8,1.87-0.96c0.93-0.22,1.92-0.22,3.09-0.33c-0.72-1.71-1.32-3.12-1.93-4.56c0.77-1.2,1.44-2.3,3.02-2.44
		c-0.62-1.14-0.28-2.09,0.75-2.66c1.41-0.78,1.68-2.09,1.95-3.47c0.09-0.48,0.27-0.95,0.48-1.39c1.47-3.14,3.1-6.22,4.41-9.43
		c1.31-3.23,2.39-6.55,3.41-9.89c1.57-5.15,2.81-10.4,4.55-15.49c1.31-3.83,1.67-7.8,2.57-11.68c0.13-0.55,0.34-1.07,0.51-1.56
		c0.37-0.09,0.61-0.21,0.84-0.2c2.06,0.05,2.52-0.4,1.88-2.19c-1.49-4.15-1.02-8.33-0.43-12.53c0.57-4.1,1.06-8.22,1.62-12.33
		c0.3-2.21,0.78-4.41,1.03-6.63c0.38-3.54,0.59-7.11,0.96-10.65c0.39-3.77,0.96-7.52,1.31-11.29c0.35-3.84,0.53-7.7,0.78-11.55
		c0.29-4.55,0.62-9.09,0.86-13.65c0.23-4.29,0.37-8.58,0.55-12.93c0.57,0,1.26,0,2.06,0c2.09,4.78,1.22,9.95,1.92,15.06
		c0.33-1.74,0.65-3.47,0.98-5.21c0.2-0.01,0.4-0.03,0.61-0.04c0.5,1.19,1.14,2.33,1.48,3.57c1.02,3.67,2.07,7.35,1.33,11.25
		c-0.12,0.61-0.1,1.32,0.1,1.91c0.41,1.23,0.28,2.43,0.09,3.65c-0.35,2.24,0.02,2.54,2.46,1.77c0.14,0.63,0.36,1.24,0.4,1.85
		c0.2,3.04,0.35,6.09,0.53,9.13c0.2,3.23,0.6,6.46,0.59,9.69c0,5.07-0.26,10.13-0.42,15.2c-0.05,1.48-0.15,2.95-0.18,4.43
		c-0.14,6.87-1.26,13.64-2.02,20.45c-0.33,2.96-0.95,5.9-1.55,8.82c-0.83,4.06-1.66,8.12-2.66,12.14c-1.02,4.09-1.96,8.2-3.51,12.17
		c-1.5,3.85-2.54,7.89-3.61,11.89c-1.07,3.98-2.72,7.5-6.36,9.56c0,1.93,0.15,3.67-0.03,5.37c-0.37,3.62-2.04,6.83-3.66,10.01
		c-3.85,7.56-7.84,15.04-12.61,22.07c-3.46,5.09-7.29,9.89-11.32,14.56c-4.98,5.78-10.62,10.74-16.77,15.17
		c-1.07,0.77-2.22,1.42-3.39,2.17c0.19,0.52,0.35,0.97,0.51,1.43c-1.28,1.33-3.48,1.76-3.78,3.97c-1.58-0.3-1.58-0.3-2.69,0.69
		c1.46,0.12,2.82,0.42,4.12,0.27c1.01-0.11,1.95-0.81,2.94-1.2c2.45-0.96,4.97-1.75,7.34-2.87c2.24-1.06,4.25-2.64,6.51-3.65
		c6.31-2.81,11.96-6.77,18.01-10.04c2.55-1.38,4.88-3.18,7.41-4.61c2.83-1.59,5.44-3.62,8.64-4.53c0.7-0.2,1.35-0.64,1.99-1.02
		c1.56-0.94,3.1-1.9,4.65-2.87c0.63-0.39,1.58-0.69,1.79-1.25c1.09-2.87,4.03-3.58,6.03-5.35c1.35-1.2,3.02-2.04,4.41-3.21
		c3.42-2.89,6.9-5.73,10.1-8.86c2.41-2.35,4.4-5.12,6.63-7.67c1.08-1.23,2.3-2.33,3.38-3.55c0.76-0.86,1.41-1.82,2.08-2.76
		c2.55-3.55,5.1-7.1,7.6-10.69c0.41-0.58,0.48-1.39,0.82-2.03c1.57-2.9,2.83-6.07,4.88-8.57c2.28-2.78,3.01-6.23,4.89-9.12
		c1.03-1.6,1.91-3.29,2.88-4.93c0.26-0.44,0.57-0.23,1-0.22c1.05,0.03,1.49-1.05,1.46-2.09c-0.07-3.12,1.26-5.76,2.71-8.52
		c0.45,0.2,0.87,0.38,1.31,0.57c0.24-0.32,0.47-0.63,0.7-0.93c0.18,0.07,0.4,0.09,0.45,0.2c2.88,5.9,3.98,12.14,3.22,18.64
		c-0.18,1.54-0.88,3.02-1.38,4.51c-2.9,8.59-6.31,16.98-10.52,25.01c-2.08,3.96-4.58,7.71-7,11.48c-0.52,0.81-1.53,1.3-2.1,1.77
		c-0.68,1.38-1.14,2.69-1.91,3.79c-3.89,5.61-8.42,10.72-13.28,15.48c-2.26,2.21-4.35,4.82-7.63,5.85
		c-0.97,0.31-1.85,1.11-2.62,1.85c-2.16,2.06-4.21,4.24-6.37,6.3c-0.76,0.72-1.74,1.19-2.61,1.79c-0.47,0.33-0.98,0.63-1.33,1.07
		c-1.53,1.89-3.56,2.97-5.8,3.7c-1.37,0.45-2.44,1.22-3.55,2.17c-3.53,3.02-7.18,5.92-11.37,8.04c-1.54,0.78-1.97-0.72-2.83-1.22
		c-0.65,0.73-1.24,1.45-1.89,2.11c-3.4,3.43-8.02,5.12-11.68,8.23c-1.38,1.17-3.09,2.6-5.38,2.16c-0.1,0.63-0.16,1.27-0.31,1.88
		c-0.45,1.81,0.24,3.07,2.02,3.45c2.28,0.48,4.56,0.87,6.94,0.75c1.7-0.08,3.48,0.31,4.88,1.51c1.19,1.02,2.36,1.05,3.85,0.49
		c2.01-0.76,4.14-1.25,6.25-1.64c0.84-0.16,1.79,0.37,2.69,0.36c3.72-0.02,7.44,0.36,11.15-0.19c1.23-0.18,2.53,0.17,3.8,0.16
		c1.91-0.03,3.81-0.15,5.71-0.26c1.57-0.09,3.13-0.27,4.7-0.34c3.07-0.13,6.14-0.14,9.21-0.33c2.46-0.16,4.91-0.52,7.36-0.8
		c5.69-0.66,11.38-1.29,17.06-2c1.39-0.17,2.76-0.56,4.12-0.91c1.64-0.42,3.21-0.5,4.9-0.08c1.27,0.31,2.61,0,3.74-0.94
		c0.62-0.51,1.39-0.9,2.15-1.17c2.49-0.9,4.95-2.02,7.53-2.46c1.97-0.34,4.25-1.18,6.32,1.05c0.59-1.47,1.06-2.66,1.6-4
		c4.27,0.32,8.52-0.38,12.37-2.54c2.59-1.46,5.33-2.17,8.2-2.68c0.84-0.15,2-0.55,2.32-1.19c1.2-2.37,3.6-2.53,5.61-3.24
		c1.75-0.62,3.8-0.4,5.55-1.01c1.92-0.67,3.91-1.59,5.4-2.93c1.97-1.77,4.23-2.9,6.53-4.01c4.19-2.01,8.47-3.86,12.64-5.92
		c1.77-0.88,3.37-2.11,5.05-3.18c-0.12,0.81-0.14,1.66-0.39,2.43c-0.54,1.65-1.16,3.28-1.82,4.89c-1.48,3.61-3.32,7.03-5.7,10.4
		c-1.08-0.54-2.06-1.02-3.12-1.54c0,1.48,0,2.88,0,4.21c-1.14,1.05-2.08,2.29-3.32,2.95c-1.23,0.65-2.78,0.71-4.39,1.07
		c-0.42,0.89-0.52,2.19-1.81,2.84c-2.29,1.17-4.45,2.61-6.76,3.73c-6.58,3.18-13.15,6.4-19.84,9.34
		c-11.27,4.94-22.82,9.08-34.86,11.84c-6.32,1.45-12.68,2.61-19.11,3.34c-7.24,0.82-14.51,1.42-21.78,2.03
		c-6.02,0.5-12.04,1-18.07,1.26c-5.74,0.25-11.48,0.18-17.23,0.25c-0.9,0.01-1.8,0-2.66,0c-0.22,0.93-0.43,1.78-0.66,2.75
		c0.78,0.65,1.5,1.57,2.43,1.98c3.4,1.49,6.81,2.98,10.32,4.14c6.36,2.1,12.79,4.02,19.21,5.92c7.91,2.34,16.07,3.37,24.25,4.2
		c3.87,0.39,7.74,0.74,11.62,0.95c1.62,0.09,3.27-0.25,4.91-0.36c0.52-0.03,1.05,0.07,1.7,0.13c-0.53,2.09-1.79,3.4-3.09,4.68
		c-0.92,0.9-1.82,1.85-1.26,3.25c0.58,1.45-0.03,2.55-0.74,3.72c-0.52,0.86-1.38,1.59-1.54,3.26c1.66-1.17,2.9-2.1,4.19-2.94
		c1.95-1.27,2.03-2.27,0.91-4.41c-0.84-1.61-0.86-2.37,0.25-3.7c0.48-0.57,1.18-1.04,1.44-1.7c0.58-1.47,1.66-1.64,3-1.62
		c3.92,0.04,7.83,0.02,11.75,0.01c2.49,0,4.97-0.01,7.26-1.23c0.32-0.17,0.82-0.02,1.75-0.02c-4.15,4.21-8.02,7.88-12.34,11.09
		c-2.98,2.21-6.07,4.18-9.76,4.75c-3.35,0.52-6.77,0.77-10.16,0.86c-2.65,0.07-5.3-0.26-7.95-0.46c-4.47-0.34-8.97-0.47-13.39-1.13
		c-7.8-1.16-15.54-2.69-23.31-4c-1.9-0.32-3.83-0.42-6.14-0.66c0.91,2.57,1.66,4.67,2.39,6.78c0.06,0.18-0.04,0.42-0.08,0.78
		c-0.58-0.31-1.05-0.57-1.6-0.86c-0.9,1.48-2.34,1.6-3.75,1.76c-0.89,0.1-1.91-0.01-2.03,1.22c0.97,1.63,2.57,1.35,4.03,1.45
		c1.53,0.11,3.05,0.17,4.71,0.26c0.29,0.7,0.67,1.59,1.1,2.6c-0.89,0.26-1.64,0.49-2.27,0.68c-0.04,0.96-0.08,1.74-0.12,2.47
		c1.34,1.39,2.43,0.46,3.76-0.66c1.31,5.54,2.69,10.71,3.71,15.96c0.7,3.6,2.13,7.14,1.4,11.3c0.98,0.01,2.02,0.33,2.63-0.04
		c1.93-1.18,3.84-2.52,3.33-5.32c-0.09-0.48-0.05-1.03,0.11-1.49c1.13-3.16,0.4-6.36-0.41-9.31c-1.17-4.3-2.99-8.44-4.7-12.58
		c-1.02-2.48-2.34-4.84-3.63-7.46c2.74,1.47,5.13,3.02,7.72,4.07c4.71,1.9,9,4.46,13.14,7.35c1.49,1.04,3.09,1.96,4.46,3.13
		c0.74,0.63,2.17,1.11,1.54,2.65c1.76,0.76,1.77,0.76,2.43,2.47c0.3,0.78,0.53,1.58,0.84,2.35c2.64,6.58,2.69,13.2,0.75,19.99
		c-1.66,5.82-4.79,10.52-9.72,14c-4.93,3.49-10.13,6.39-16.34,6.84c-0.21,0.02-0.41,0.25-0.63,0.39c-0.39,3.05-0.73,6.1-1.18,9.13
		c-1.18,7.97-2.97,15.8-5.37,23.49c-3.2,10.25-7.61,20-12.44,29.56c-2.54,5.03-5.12,10.04-8.44,14.66
		c-2.47,3.43-4.42,7.23-6.57,10.88c-0.7,1.18-1.45,2.24-2.6,2.2c-0.19,1.01-0.12,1.94-0.52,2.55c-2.68,3.99-5.41,7.94-9.05,11.16
		c-0.54,0.47-1.22,1.23-1.18,1.81c0.09,1.62-0.81,2.61-1.7,3.71c-1.36,1.68-2.51,3.54-3.96,5.12c-2.18,2.37-4.33,4.86-6.89,6.77
		c-5.55,4.16-11.83,7.04-18.25,9.62c-1.51,0.61-2.95,1.37-4.42,2.06c-0.5,0-1,0-1.5,0c-0.06-0.91-0.04-1.65,0.78-2.43
		c1.12-1.07,2.01-2.43,2.8-3.79c2.67-4.59,5.2-9.26,7.89-13.85c3.27-5.57,6.58-11.13,9.33-16.98c0.46-0.98,0.99-1.62,2.3-1.86
		c2.7-0.48,3.27-1.84,2.18-4.11c-0.07-0.14-0.04-0.31-0.05-0.35c0.66-1.36,1.36-2.59,1.89-3.88c1.22-2.98,2.26-6.03,3.55-8.97
		c2.59-5.93,5.32-11.8,7.96-17.72c0.5-1.13,0.75-2.37,2.21-2.79c0.29-0.09,0.44-0.81,0.58-1.26c0.19-0.63,0.23-1.31,0.47-1.91
		c1.14-2.76,2.43-5.46,3.47-8.26c0.56-1.5,1.09-2.69,3.15-2.04c-0.21-1.05-0.36-1.8-0.48-2.37c-0.74-0.29-1.31-0.51-1.87-0.73
		c0.34-3.2,2.7-5.57,2.61-8.68c1.87-2.58,0.95-6.29,3.47-8.63c0.19-0.18,0.2-0.63,0.18-0.95c-0.07-1.58,0.82-2,2.2-1.98
		c0.74,0.01,1.49-0.12,2.23-0.2c1.12-0.11,2.09-0.48,2.71-1.59c-1.88-2.23-4.74-1.49-7.14-2.25c0.12-0.56,0.14-0.99,0.31-1.35
		c1.58-3.42,1.8-6.88,1.32-10.66c-0.47-3.65-0.07-7.43,0.16-11.14c0.13-2.15,0.09-4-1.71-5.59c-1.86-1.65-3.49-3.56-5.19-5.38
		c-2.77-2.98-5.25-6.19-7.15-9.67c0.35-0.98,0.64-1.76,1.1-3.04c-1.18,0.61-1.82,0.94-2.55,1.32c-2.28-3.4-4.59-6.69-6.39-10.61
		c0.53,0.1,0.8,0.07,0.96,0.19c4.53,3.1,10,3.98,14.89,6.25c0.66,0.31,1.43,0.38,2.14,0.6c0.96,0.3,1.61-0.03,1.85-0.52
		c-0.77-3.61-1.48-6.88-2.21-10.31c0.98-0.15,1.65-0.25,2.65-0.4c-1.19-1.65-2.27-3.09-3.28-4.58c-0.46-0.67-0.92-1.4-1.16-2.16
		c-1.49-4.92-2.92-9.86-4.34-14.8c-0.2-0.71-0.41-1.47-0.37-2.19c0.15-2.43-0.63-4.55-1.77-6.64c-0.66-1.21-1.04-2.57-1.6-3.83
		c-0.61-1.35-1.06-2.87-2-3.97c-2.71-3.17-4.14-6.97-5.81-10.67c-0.74-1.65-1.62-3.23-2.5-4.81c-0.73-1.3-1.47-2.57-0.88-4.12
		c0.91-0.05,1.72-0.1,2.65-0.15c-0.92-2.2-0.92-2.15-3.03-2.23c-1.9-0.07-3.42-0.76-4.65-2.41c-3.87-5.19-7.63-10.53-12.98-14.37
		c-2.89-2.07-5.88-4.09-9.06-5.63c-2.82-1.37-5.7-2.87-9.01-3.03c1.54-0.9,2.98-1.82,4.55-2.31c2.6-0.8,5.29-1.28,7.93-1.97
		c0.48-0.13,1.17-0.57,1.22-0.94c0.1-0.76-0.69-0.76-1.24-1.08c-1.21-0.7-2.31-0.23-3.44-0.22c-1.82,0.03-3.67,0-5.47,0.24
		c-2.66,0.36-5.1,1.11-7.88-0.36c-3.56-1.88-7.8-1.31-11.71-2.04c-0.24-0.04-0.5,0-0.74,0.05c-2.84,0.61-5.72,1.09-8.5,1.9
		c-1.91,0.55-3.63,0.38-5.29-0.5c-2.72-1.44-5.48-2.84-8.01-4.56c-1.45-0.99-2.34-0.86-3.74,0.01c-2.82,1.75-5.77,3.31-8.75,4.76
		c-5.75,2.81-11.97,4.08-18.25,4.78c-4.96,0.56-9.68,2.53-14.87,1.96c-2.79-0.31-5.72,0.67-8.58,1.09c-0.2,0.03-0.39,0.23-0.56,0.33
		c0.17,0.67,0.32,1.27,0.41,1.62c-1.19,1.02-2.23,1.82-3.17,2.72c-1.43,1.37-2.81,2.79-4.19,4.21c-2.43,2.49-4.91,4.94-7.21,7.54
		c-0.74,0.83-1.37,1.34-2.49,1.24c-1.32-0.11-2.65-0.17-3.98-0.21c-1.15-0.03-1.36,0.59-1.01,1.6c0.9-0.19,2.05-0.64,2.13,0.7
		c0.09,1.62,0.2,3.36-1.21,4.65c-2.77,2.53-3.92,6.13-6.01,9.12c-0.22,0.31-0.38,0.83-0.28,1.17c0.4,1.37-0.33,2.37-1.19,3.08
		c-1.7,1.41-2.46,3.34-3.21,5.24c-0.7,1.77-1.21,3.56-2.5,5.07c-0.46,0.54-0.33,1.57-0.48,2.38c-0.18,1.04-0.19,2.14-0.57,3.09
		c-4.38,11.07-7.72,22.43-10.18,34.07c-0.52,2.46-0.33,5.18-2.1,7.25c0.56,1.29,1.51,1.46,2.69,1.02c3.8-1.41,7.63-2.76,11.4-4.24
		c1.95-0.76,3.81-1.76,6.16-2.86c-1.46,2.65-2.59,5.05-4.03,7.24c-2.23,3.4-4.54,6.77-7.05,9.97c-2.24,2.86-4.73,5.55-7.23,8.2
		c-2.21,2.35-4.71,4.47-3.65,8.26c0.17,0.6-0.14,1.32-0.09,1.98c0.46,5.52,0.95,11.03,1.45,16.55c0.74,8.15,2.95,15.97,5.48,23.7
		c0.38,1.15,0.51,1.99-0.56,2.83c-0.39,0.31-0.54,0.97-0.73,1.5c-0.49,1.31-0.81,2.69-1.43,3.93c-1.87,3.7-3.88,7.33-5.77,11.02
		c-1.11,2.17-2.11,4.4-3.19,6.66c0.44,0.68,1.13,0.95,2.03,0.45c0.65-0.36,1.31-0.72,1.96-1.08c3.04-1.68,6.06-3.39,9.12-5.04
		c1.5-0.81,2.9-2,4.98-1.62c0.22,0.4,0.54,0.87,0.77,1.39c1.91,4.42,3.8,8.86,5.71,13.28c1.41,3.27,2.85,6.49,3.38,10.09
		c0.63,4.26,1.44,8.52,2.54,12.68c1.66,6.28,2.57,12.64,2.76,19.11c0.03,1.08,0.5,1.83,1.47,2.05c2.66,0.61,3.7,2.45,4.09,4.92
		c0.13,0.86,0.26,1.83,1.57,1.89c0-2.54-0.08-4.98,0.02-7.4c0.11-2.49,0.4-4.97,0.64-7.85c0.64,0.91,0.88,1.59,1.37,1.9
		c2.22,1.41,2.47,1.79,2.63,3.85c0.04,0.55,0.48,1.12,0.84,1.59c0.48,0.62,1.2,1.08,1.6,1.74c0.93,1.55,1.67,3.21,2.6,4.76
		c2.4,3.98,4.87,7.91,7.29,11.87c0.68,1.11,1.29,2.27,1.93,3.41C217.74,505.21,217.24,505.21,216.74,505.21z"/>
	<path d="M86.33,367.18c0.86,2.05,2.12,3.73,4.23,4.66c0.36,0.16,0.75,0.45,0.95,0.79c1.72,2.88,3.4,5.79,5.09,8.69
		c0.04,0.07,0.08,0.16,0.08,0.23c0.08,2.78,2.08,4.2,3.91,5.87c1.99,1.83,3.65,4.02,5.44,6.06c1.09,1.24,2.14,2.5,3.23,3.75
		c1.62,1.86,3.23,3.73,4.9,5.54c0.77,0.84,1.27,2.25,2.92,1.71c0.16-0.05,0.57,0.34,0.72,0.61c0.34,0.59-0.45,1.42,0.51,1.99
		c0.77,0.45,1.39,1.17,2.04,1.81c0.59,0.58,1.09,1.26,1.71,1.8c3.79,3.35,7.58,6.7,11.43,9.98c0.94,0.8,2.04,1.43,3.14,1.99
		c1.39,0.71,1.4,0.65,1.44,2.74c0.01,0.34,0.27,0.79,0.55,1c0.92,0.7,1.81,1.62,2.87,1.91c2.63,0.73,3.04,2.86,3.24,4.93
		c0.12,1.23,0.61,1.87,1.53,2.27c1.28,0.57,2.62,0.97,3.92,1.44c1.42,2.7,2.88,5.4,4.25,8.14c0.68,1.37,1.21,2.8,2.28,3.94
		c0.26,0.28,0.44,0.73,0.47,1.12c0.24,2.46,0.52,2.95,2.24,4.34c0.54,0.44,1.06,1.09,1.25,1.75c0.23,0.79,0.22,1.54,1.12,2.01
		c0.25,0.13,0.12,0.98,0.16,1.51c0.54,0.14,1.3,0.11,1.57,0.46c0.35,0.44,0.47,1.23,0.38,1.81c-0.1,0.62-0.57,1.19-0.88,1.78
		c1.29,2.07,1.5,2.2,4.16,2.76c0.01,1.57,0.36,2.86,2.27,3.45c1.01,0.31,2.21,1.16,2.31,2.84c-1.61-0.27-3.12-0.53-4.61-0.79
		c-0.51,2.09-0.52,2.13,1,2.75c1.84,0.76,3.7,1.5,5.59,2.13c1.93,0.65,3.01,2.09,3.88,3.86c-15.3-5.57-29.5-13.24-43.14-22.04
		c-13.74-8.87-26.08-19.45-38.41-31.05c1.87,0.51,3.2,0.87,4.81,1.31c-0.11-1.7-0.2-3.07-0.29-4.42c-1.16-0.33-2.18-0.62-3.21-0.91
		c-2.13-0.59-3.88-1.63-5.37-3.38c-1.71-2-3.88-3.61-5.75-5.48c-1.57-1.59-3.4-3.11-4.4-5.04c-1.41-2.72-3.7-4.46-5.87-6.27
		c-1.49-1.25-1.93-2.45-1.44-4.05c0.57-1.84,0.02-2.82-1.57-3.89c-1.98-1.32-3.71-3-5.76-4.29c-1.06-0.67-1.79-1.93-2.53-3.02
		c-1.81-2.69-3.56-5.42-5.27-8.17c-0.92-1.48-1.7-3.04-2.46-4.4c0.66-1.17,1.22-2.16,1.74-3.09c-1.23-1.58-2.31-0.67-3.54-0.03
		c-12.45-22.85-21.03-47-25.26-72.49c3.02-0.53,6.08-0.86,9.03-1.64c2.46-0.65,4.81-1.77,7.17-2.76c1.68-0.7,3.3-1.56,4.96-2.31
		c1.76-0.8,1.77-0.78,1.52-3.21c-0.77,0.06-1.6-0.03-2.32,0.2c-5.47,1.68-10.93,3.43-16.39,5.14c-1.41,0.44-2.83,0.82-4.23,1.22
		c-2.23-6.02-4.29-38.31-3.06-47.59c1.96,0.98,3.84,2,5.78,2.89c4.59,2.12,9.2,4.21,13.83,6.25c2.81,1.24,5.65,2.4,8.51,3.51
		c0.74,0.29,1.61,0.26,2.83,0.44c0.04,0.17,0.32,0.78,0.29,1.38c-0.29,4.83,0.21,9.59,0.87,14.36c0.44,3.18,0.4,6.43,0.93,9.58
		c1,5.97,2.16,11.91,3.41,17.82c1.69,7.97,4.1,15.75,6.82,23.42c1.49,4.2,3.04,8.4,4.78,12.5c1.42,3.34,3.19,6.52,4.77,9.79
		c1.91,3.95,3.79,7.91,5.63,11.88c0.23,0.5,0.19,1.13,0.27,1.7C84.8,365.76,84.92,366.05,86.33,367.18z"/>
	<path d="M499.43,217.13c2.16,1.07,2.16,1.07,2.69,4.59c-2.63,0.83-4.94,3.19-8.26,1.51c-0.53,0.41-1.16,0.81-1.68,1.32
		c-2.7,2.65-6.1,3.91-9.62,4.97c-1.2,0.36-2.27,0.49-3.16-0.88c-1.75,2.91-4.46,3.31-7.28,3.49c-0.78-4.6-1.55-9.08-2.3-13.57
		c-0.15-0.89-0.29-1.72,0.47-2.56c0.64-0.71,0.74-1.86-0.1-2.47c-2.38-1.73-2.37-4.47-2.97-6.87c-0.74-2.94-0.85-6.04-1.47-9.03
		c-0.42-2.02-1.32-3.93-1.84-5.94c-0.49-1.9-0.77-3.85-1.17-5.95c1.61-0.16,2.88-0.28,3.94-1.48c1-1.14-0.12-2.43,1.06-3.8
		c-1.16,0.23-1.95,0.3-2.66,0.55c-0.94,0.33-1.82,0.8-2.73,1.22c-2.46,1.14-2.59,1.02-3.59-1.39c-1.89-4.52-3.88-9-5.85-13.49
		c-0.7-1.59-1.47-3.15-2.2-4.72c-0.07-0.15-0.16-0.32-0.15-0.47c0.43-4.51-0.66-9.15,1.42-13.52c0.82-1.71,1.21-3.61,1.82-5.42
		c0.18-0.55,0.39-1.1,0.65-1.62c0.65-1.32,1.33-2.62,2.05-4.02c-1.83-1.28-2.13-3.01-2.42-4.86c-0.35-2.29-1.06-4.52-1.62-6.77
		c-0.28-1.12-0.49-2.27-0.85-3.36c-0.65-1.95-1.25-3.85-2.44-5.65c-1.13-1.71-1.35-4.04-1.9-6.12c-0.27-1.02-0.4-2.08-0.85-3.18
		c-1.87,10.44-7.81,19.09-12.08,28.82c-1.31-1.69-2.49-3.14-3.6-4.64c-5.51-7.52-11.68-14.46-18.37-20.92
		c-4.17-4.03-8.47-7.93-12.73-11.88c-1.27-1.18-1.29-1.15-0.82-3.21c0.06-0.05,0.13-0.17,0.18-0.16c0.48,0.11,0.96,0.24,1.72,0.43
		c0.14-0.55,0.59-1.28,0.39-1.7c-1.5-3.1-0.72-6.39-0.96-9.58c-0.09-1.14-0.18-2.28-0.27-3.42c-0.01-0.17-0.08-0.35-0.02-0.49
		c1.31-3.38,0.09-6.84,0.27-10.26c0.14-2.64,0.03-5.29,0.03-8.52c2.09,1.24,3.66,2.18,5.11,3.33c3.78,2.97,7.56,5.93,11.35,8.88
		c0.25,0.19,0.58,0.39,0.87,0.38c1.47-0.04,1.9,0.67,1.68,2.04c-0.17,1.12,0.7,1.54,1.51,2.03c1.77,1.07,3.58,2.11,5.21,3.38
		c1.55,1.21,2.9,2.68,4.32,4.06c2.37,2.31,4.77,4.59,7.08,6.97c1.49,1.54,2.79,3.27,4.27,4.82c0.77,0.8,1.35,1.92,2.74,1.99
		c0.28,0.01,0.71,0.69,0.77,1.11c0.17,1.16,0.86,1.86,1.61,2.69c2.06,2.27,3.93,4.7,5.88,7.06c1.31,1.59,2.31,3.47,4.48,4.19
		c0.45,0.15,1.05,0.98,0.97,1.36c-0.32,1.43,0.57,1.89,1.53,2.4c0.8,0.43,1.13,1.04,1.21,2c0.08,0.97,0.52,1.92,1.76,2.1
		c0.28,0.04,0.69,0.27,0.75,0.49c0.85,3.2,3.86,4.98,5.16,7.9c0.65,1.45,0.91,3.1,2.37,4.22c0.92,0.7,1.47,1.89,1.09,3.31
		c-0.12,0.44,0.5,1.55,0.83,1.57c1.82,0.12,2.2,1.62,2.75,2.78c0.59,1.26,1.04,2.68,1.13,4.06c0.18,2.54,0.05,5.1,0.05,7.87
		c1.17,1.68,3.01,0.67,4.64,0.67c2.34,2.3,3.27,5.38,4.5,8.26c1.43,3.35,2.72,6.77,3.94,10.21c2,5.63,4.1,11.23,5.77,16.96
		c1.78,6.11,3.07,12.37,4.68,18.53c0.51,1.94,0.44,3.75-0.24,5.59C499.72,215.93,499.59,216.56,499.43,217.13z"/>
	<path d="M268.13,48.11c-1.29,2.14-3.52,1.99-5.8,2.02c-3.96,0.05-7.93,0.24-11.88,0.51c-1.49,0.1-2.59-0.33-3.39-1.47
		c-0.27,0.04-0.49,0-0.59,0.09c-1.89,1.89-4.36,1.94-6.8,2.31c-5.41,0.83-10.79,1.89-16.18,2.86c-2.12,0.38-4.23,0.77-6.42,1.17
		c-0.25-0.41-0.57-0.73-0.66-1.1c-1.01-4.11-3.29-7.61-5.43-11.17c-1.03-1.72-1.31-3.74-1.13-5.36c0.31-2.78-0.35-5.23-1.04-7.76
		c-0.33-1.2-0.64-2.39-0.99-3.72c2.68,0.45,5.13,0.02,7.62-0.74c2.21-0.67,4.56-0.86,6.86-1.25c3.92-0.67,7.83-1.46,11.77-1.96
		c4.08-0.52,8.2-0.75,12.3-1.1c0.16-0.01,0.35,0.07,0.5,0.02c2.75-0.92,5.19-0.02,7.61,1.22c1.4,0.71,2.69,0.12,3.56-0.97
		c0.6-0.76,1.24-0.98,2.09-1.02c0.58-0.03,1.16-0.19,1.73-0.17c6.73,0.15,13.48,0.11,20.2,0.54c8.98,0.57,17.9,1.66,26.76,3.38
		c2.92,0.56,5.85,0.96,8.74,1.74c1.44,0.39,3.06,0.07,4.8,0.07c-0.6,2.31-1.15,4.6-1.81,6.86c-0.62,2.1-0.63,4.08,0.87,6.04
		c-2.76,5.31-6.57,10.13-8.06,16.25c-1.27-0.19-2.25-0.27-3.2-0.49c-8.27-1.91-16.61-3.33-25.09-3.9
		c-3.81-0.26-7.64-0.36-11.41-0.85C271.89,49.92,270.26,48.93,268.13,48.11z"/>
	<path d="M69.92,121.81c0.23-0.62,0.39-1.45,0.81-2.11c0.7-1.11,1.53-2.14,2.36-3.16c0.69-0.84,1.04-1.93,2.51-2.14
		c0.66-0.09,2.09-1.11,1.31-2.6c-0.05-0.1,0.02-0.38,0.11-0.44c1.85-1.14,2.9-3.46,5.65-3.71c0.13,1.01,0.01,2.15,0.43,3.03
		c1.08,2.27,0.51,3.95-0.95,5.9c-1.91,2.54-3.22,5.44-2.13,8.85c0.14,0.43-0.16,1.19-0.51,1.54c-0.96,0.95-1.26,2.06-1.41,3.35
		c-0.18,1.47-0.4,2.99-0.94,4.36c-1.24,3.17-0.48,6.17,0.42,9.2c0.67,2.27,2.17,4.31,1.8,6.87c-0.06,0.44,0.25,0.96,0.46,1.4
		c0.31,0.68,0.65,1.35,1.04,1.99c1.63,2.6,2.03,4.85,0.23,7.91c-3.95,6.71-7,13.92-9.59,21.29c-2.42,6.89-4.85,13.78-7.25,20.68
		c-0.3,0.86-0.37,1.79-0.64,2.66c-0.52,1.65-1.12,3.27-1.67,4.9c-0.67,2-1.56,3.81-1.3,6.17c0.3,2.75-0.29,5.61-0.62,8.41
		c-0.27,2.29-0.74,4.56-1.17,7.16c-1.48-0.48-2.94-0.9-4.36-1.43c-4.59-1.72-9.19-3.39-13.72-5.27c-1.81-0.75-3.36-2.13-5.16-2.94
		c-1.9-0.85-3.64-1.85-5.26-3.15c-0.82-0.67-1.16-1.35-0.95-2.35c0.85-4.05,1.69-8.11,2.55-12.16c0.58-2.75,1.06-5.54,1.83-8.25
		c2.49-8.77,5.04-17.54,8.62-25.95c1.3-3.05,2.52-6.13,3.75-9.21c0.49-1.24,1.21-2.13,2.65-2.3c0.56-0.07,1.09-0.37,1.63-0.59
		c1.73-0.68,1.73-0.82,1.15-2.7c-0.2-0.66,0.07-1.44-0.02-2.15c-0.49-3.75,1.48-6.72,3.13-9.76c2.09-3.87,4.27-7.7,6.55-11.46
		c2.01-3.32,4.15-6.57,6.34-9.78C68.16,123.05,69.11,122.51,69.92,121.81z"/>
	<path d="M325.45,38.08c-2.49-0.91-2.1-2.64-1.7-4.54c0.72-3.43,2-6.62,3.58-10.18c0.35,0.8,0.54,1.24,0.61,1.4
		c0.55,0.11,1.16,0.08,1.25,0.28c0.39,0.9,0.64,1.86,0.93,2.81c0.17,0.55,0.15,1.33,0.52,1.62c0.51,0.39,1.3,0.42,1.98,0.6
		c0.12-0.51,0.4-1.05,0.32-1.53c-0.29-1.7-0.68-3.38-1.06-5.06c-0.54-2.35-0.14-4.64,0.5-6.88c0.38-1.32,0.97-2.35,2.5-3.07
		c1.77-0.83,3.2-2.28,3.14-4.82c-0.04-1.54,0.77-3.13,0.48-4.81c-0.06-0.33,0.53-0.76,1.03-1.45c0.67,0.82,1.4,1.4,1.71,2.15
		c1.18,2.83,2.25,5.7,2.43,8.83c0.12,2.22,0.37,4.43,0.56,6.6c3.46,0.45,3.79,0.16,5.88-5.2c0.45,0.29,0.86,0.55,1.39,0.89
		c0.19-0.45,0.36-0.86,0.61-1.49c3.52,5.26,2.12,10.77,1.64,16.73c1.81,1.8,4.25,3.78,7.15,4.66c2.44,0.74,2.93,2.3,2.03,4.59
		c-0.54,1.38-1.41,2.64-2.21,3.9c-0.67,1.05-1.33,2.15-2.2,3.01c-2.05,2.02-1.51,4.4-1.15,6.76c0.17,1.14,1.09,1.32,2.08,1.34
		c2.43,0.04,5.13-2.18,5.75-5.01c0.2-0.91,0.37-1.37,1.36-1.66c0.65-0.19,1.09-1.1,1.78-1.86c0.29,0.51,0.71,0.95,0.78,1.43
		c0.35,2.54,0.77,5.09,0.83,7.64c0.05,1.89-0.89,3.45-2.58,4.56c-2.79,1.82-4.49,4.31-4.63,7.79c-0.06,1.39-0.4,2.8-0.8,4.14
		c-1.3,4.38-4.9,6.38-8.75,7.85c-2.85,1.09-5.86,2.15-8.87,2.38c-5.92,0.46-11.9,0.14-16.99-3.5c-3.03-2.17-5.84-4.65-8.63-7.13
		c-2.82-2.51-3.7-5.99-3.41-9.51c0.32-3.95,1.31-7.85,3.49-11.31c1.4-2.22,2.17-4.71,4.14-6.72
		C324.35,42.87,324.62,40.29,325.45,38.08z"/>
	<path d="M177.12,22.8c1.79,0.43,2.71,0.24,3.42-1.17c0.54-1.06,1.38-1.75,2.13-2.58c1.09-1.2,2.13-2.43,3.4-3.9
		c-0.27,2.19-0.49,4.04-0.73,5.98c0.46,0.78,1.15,1.34,2.2,1.02c1.1-0.34,1.03-1.3,1.15-2.24c0.46-3.77,0.77-7.58,1.61-11.26
		c0.6-2.63,1.87-5.13,4.39-6.69c0.51-0.31,0.77-1.02,1.45-1.97c0,1.15,0.14,1.92-0.02,2.62c-0.79,3.44-0.23,6.8,0.68,10.07
		c1.04,3.76,1.06,7.51,0.62,11.32c-0.16,1.39-0.26,2.79-0.38,4.19c-0.08,0.94-0.07,1.9,1.05,2.22c0.78,0.22,1.87-0.79,2.04-1.81
		c0.25-1.42,0.47-2.85,1.17-4.34c0.23,0.37,0.47,0.73,0.79,1.23c0.29-0.45,0.57-0.89,0.9-1.42c0.18,0.14,0.44,0.25,0.5,0.42
		c1.01,3.14,2,6.3,2.98,9.45c0.6,1.91-0.48,3.14-1.99,4.32c0.62,1.38,1.21,2.72,1.81,4.05c0.1,0.23,0.3,0.43,0.34,0.66
		c0.18,0.92,0.1,1.98,0.53,2.74c0.46,0.81,1.61,1.21,2.1,2.01c2.64,4.34,5.17,8.79,5.45,13.99c0.21,3.89-0.56,7.55-3.63,10.46
		c-3.16,2.99-6.46,5.76-10.22,7.93c-2.62,1.51-5.55,2.43-8.53,2.54c-6.04,0.22-11.92-0.68-17.43-3.39
		c-2.58-1.27-4.79-2.89-6.36-5.39c-1.76-2.81-3.79-5.46-5.45-8.32c-1.95-3.35-1.98-6.94-0.61-10.56c0.47-1.24,0.86-2.52,1.39-3.73
		c0.35-0.81,0.88-1.54,1.4-2.44c1.95,1.55,2.49,3.59,3.09,5.63c0.32,1.09,0.71,2.23,1.37,3.12c0.61,0.82,1.73,1.06,2.72,0.52
		c0.83-0.46,0.63-1.26,0.65-2.14c0.05-2.95-1.27-5.42-2.31-8c-0.93-2.31-1.98-4.58-2.72-6.95c-0.41-1.31-0.36-2.79-0.37-4.19
		c-0.01-0.86,0.23-1.5,1.51-1.38c0.72,0.07,1.6-0.68,2.28-1.22c1.1-0.87,2.1-1.86,3.11-2.84c0.27-0.26,0.56-0.7,0.52-1.02
		C174.83,27.65,176.35,25.42,177.12,22.8z"/>
	<path d="M165.26,245.48c-1.69,1.43-2.73-0.26-4.11-0.84c0,0.61,0,1.05,0,1.48c-2.91,0.47-4.18,0.31-6.02-0.82
		c-0.82,1.59-2.3,1.88-3.93,1.94c-3.23,0.13-6.46,0.36-9.7,0.47c-4.06,0.14-8.14,0.42-12.19,0.25c-5.95-0.26-11.91-0.43-17.8-1.51
		c-5.62-1.03-11.32-1.64-16.91-2.82c-6.35-1.33-12.61-3.08-18.9-4.66c-1.45-0.37-2.9-0.77-4.32-1.22c-0.73-0.23-1.43-0.6-2.09-1.13
		c2.62-0.51,5.51,0.37,7.57-2.03c0-1.42,0-2.8,0-4.05c1.17-0.11,2.15-0.2,3.4-0.31c-0.58-1.87-1.04-3.35-1.49-4.8
		c3.37-3.61,5.05-8.14,6.93-12.49c1.97-4.55,3.49-9.3,5.03-14.02c1.26-3.84,2.25-7.77,3.35-11.65c1.89,0.85,3.17,2.47,4.37,4.33
		c1.16,1.79,2.7,3.34,4.14,4.94c2.43,2.69,4.86,5.38,7.39,7.97c2.58,2.64,5.45,5.02,7.87,7.79c1.86,2.12,3.95,3.97,6.2,5.53
		c2.42,1.68,4.31,4.08,7.15,5.17c0.38,0.14,0.73,0.38,1.06,0.62c3.47,2.52,6.95,5.03,10.41,7.57c1.66,1.22,3.25,2.54,4.91,3.75
		c1.06,0.77,2.25,1.36,3.32,2.11c2.1,1.46,4.09,3.13,6.28,4.43c1.84,1.09,3.9,1.8,5.87,2.65
		C163.84,244.45,164.78,244.56,165.26,245.48z"/>
	<path d="M383.89,243.92c-2.26,1.81-4.69,2.73-7.43,2.9c-0.13-0.51-0.26-1.04-0.45-1.78c-2.66,0.6-5.07-0.37-7.56-0.95
		c-0.01-0.18-0.02-0.36-0.03-0.54c0.49-0.15,0.96-0.37,1.46-0.45c1.75-0.27,3.28-0.91,4.74-1.98c2.4-1.75,5-3.24,7.47-4.91
		c1.3-0.87,2.48-1.92,3.75-2.83c3.28-2.36,6.55-4.73,9.88-7.01c1-0.69,2.23-1.04,3.3-1.65c2.78-1.61,5.53-3.27,8.54-5.06
		c0.04-0.33,0.12-0.97,0.17-1.4c5.19-5.13,10.43-9.99,15.31-15.19c4.88-5.21,9.41-10.76,14.3-16.41c0.34,1.11,0.69,2.13,0.97,3.16
		c0.8,2.95,1.53,5.92,2.38,8.85c0.94,3.26,1.96,6.5,2.98,9.73c0.27,0.86,0.66,1.68,1.01,2.52c0.97,2.34,2.09,4.63,2.84,7.04
		c0.28,0.9-0.06,2.21-0.55,3.09c-0.74,1.35-0.07,1.97,0.95,2.12c2.63,0.4,3.8,2.27,5.1,4.25c1.54,2.33,3.35,4.48,5.13,6.64
		c0.78,0.95,1.71,1.77,3.14,1.75c0.44-0.01,0.89,0.59,1.54,1.05c-0.59,0.31-0.91,0.56-1.27,0.65c-10.3,2.64-20.53,5.56-31.05,7.28
		c-7.86,1.28-15.72,2.6-23.71,2.74c-2.32,0.04-4.63,0.38-6.96,0.44c-1.65,0.04-3.34,0.01-4.97-0.27c-2.5-0.43-5,0.13-7.48-0.19
		c-0.41-0.05-0.83-0.04-1.24-0.11c-1.28-0.22-2.19-0.77-2.03-2.3C384.17,244.82,384.02,244.51,383.89,243.92z"/>
	<path d="M215.44,103.12c-0.65-0.28-1.28-0.55-1.92-0.81c1.28,1.93,0.45,3.55-0.4,5.18c-0.88,1.69-1.72,3.41-2.58,5.11
		c-0.53,1.05-1.22,1.46-2.54,1.48c-5.38,0.08-10.77,0.66-16.15,0.54c-6.95-0.16-13.38,2.19-20.03,3.49
		c-3.03,0.59-4.67-0.23-5.61-3.24c-0.41-1.32-0.85-2.64-1.39-4.31c2.38,0.83,4.16,0.67,4.8-2.29c-1.59,0.12-3.08,0.23-4.65,0.35
		c-0.71-3.02-1.4-6.05-2.16-9.07c-0.26-1.04,0.19-1.62,1.01-1.99c1.15-0.53,1.98-1.12,2.58-2.43c0.62-1.37,2.37-1.66,3.87-1.75
		c2.06-0.13,4.13-0.05,6.19-0.16c5.88-0.31,11.76-0.69,17.64-1.02c3.28-0.18,5.81-2.01,8.02-4.1c4.72-4.46,9.56-8.66,15.42-11.6
		c2.07-1.04,3.99-2.4,5.97-3.6c4.32-2.63,8.64-5.26,12.97-7.86c0.4-0.24,0.91-0.41,1.37-0.4c1.32,0.01,2.64,0.13,4.23,0.22
		c0.11,1.99,0.24,3.94,0.32,5.89c0.12,3.03,1.99,5.36,3.2,7.95c0.76,1.63,1.57,3.23,2.52,5.17c-2.18,1.04-4.24,2.05-6.32,3
		c-3.93,1.8-7.96,3.4-11.79,5.39c-4.88,2.53-9.37,5.69-13.21,9.68C216.4,102.32,215.94,102.68,215.44,103.12z"/>
	<path d="M364.6,104.8c1.61,2.41,0.39,4.89-0.75,7.29c-0.75,1.57-1.81,2.98-2.76,4.5c-1.65,0-3.3,0.08-4.94-0.01
		c-5.7-0.32-11.39-0.77-17.09-1.05c-5.3-0.26-10.61-0.37-15.92-0.51c-1.42-0.04-2.4-0.48-2.67-2.02c-0.31-1.77-0.7-3.53-1.04-5.25
		c-1.85-1.71-3.9-3.39-5.69-5.3c-4.27-4.58-9.47-7.76-15.08-10.36c-1.73-0.8-3.43-1.7-5.22-2.36c-1.51-0.55-2.18-2.03-3.45-2.72
		c-1.28-0.7-2.93,0.23-4.3-0.71c-0.8-0.55-1.77-0.85-2.88-1.37c1.42-2.88,2.63-5.68,4.16-8.3c0.93-1.59,1.3-3.16,1.4-4.94
		c0.11-1.97,0.42-3.92,0.64-5.85c1.37-0.12,2.44-0.29,3.5-0.29c0.72,0,1.55,0.07,2.14,0.43c4.89,2.96,9.74,6,14.6,8.99
		c1.54,0.95,3.04,1.99,4.69,2.71c1.79,0.78,3.72,1.22,5.62,1.82c0.05,0.8-0.46,1.08-1.22,1.15c-0.73,0.07-1.48,0.33-2.19,0.25
		c-2.58-0.31-4.06,1.39-5.66,2.96c0.33,0.95,0.96,1.45,2.02,1.37c2.55-0.2,5.23,0.04,7.61-0.7c2.33-0.72,3.85,0,5.42,1.31
		c0.57,0.47,0.98,1.12,1.5,1.66c2.97,3.01,6.18,5.52,10.72,5.53c4.83,0.02,9.66,0.11,14.49,0.21c3.14,0.06,6.29,0.16,9.43,0.31
		c1.93,0.1,2.86,1.82,4.22,2.84c0.5,0.38,0.94,1.03,1.49,1.13c1.32,0.22,1.41,1.02,1.17,1.99c-0.27,1.04-0.47,2.2-1.08,3.03
		C366.84,103.39,365.76,103.91,364.6,104.8z"/>
	<path d="M392.92,128.84c0.82-0.15,1.47-0.28,2.47-0.46c0.8,1.37,1.75,2.98,2.69,4.58c-0.92,1.99,0.86,4.11-0.45,6.19
		c-0.83,1.31-0.31,2.02,1.24,1.93c1.56-0.09,2.29,0.58,3.07,1.82c1.57,2.48,3.97,4.18,6.31,5.88c1.42,1.03,1.46,0.97,1.94,2.63
		c4.47,1.07,7.83,5.06,13.4,4.62c-1.87,2.48-3.27,4.51-4.84,6.41c-4.71,5.69-9.36,11.43-14.27,16.94
		c-4.76,5.33-10.08,10.09-16.12,14.01c-5.72,3.71-11.55,7.2-17.72,10.13c-6.05,2.87-12.02,5.91-18.13,8.94
		c-0.55-1.24,0.2-1.66,0.65-2.17c1.06-1.21,2.96-1.71,3.09-3.7c1.9-0.49,2.57-2.21,3.39-3.65c1.5-2.65,3.84-4.76,5.15-7.42
		c0.71-1.43,1.83-2.49,2.46-3.92c0.65-1.47,1.43-2.96,2.48-4.15c0.76-0.87,1.46-1.73,2.04-2.72c0.03-0.06,0.16-0.04,0.22-0.1
		c0.8-0.73-1.31-1.92,0.15-2.22c1.09-0.22,1.54-0.67,1.9-1.51c0.21-0.49,1.05-1.04-0.09-1.45c0.26-0.66,0.35-1.51,0.82-1.95
		c1.38-1.3,2.22-2.76,2.54-4.67c0.18-1.1,0.9-2.1,1.39-3.15c2.7-5.86,4.98-11.88,6.98-18.02c1.74-5.35,3.61-10.67,5.35-16.02
		C391.73,133.44,392.27,131.19,392.92,128.84z"/>
	<path d="M154.09,172.46c-0.49-0.02-0.8-0.04-1.24-0.06c0.07,1.1,0.65,1.8,1.57,2.25c1.83,0.89,3.08,2.91,2.73,4.83
		c-0.12,0.64,0.13,0.71,0.42,1.11c1.48,2,2.88,4.07,3.55,6.53c0.02,0.07-0.03,0.15-0.05,0.24c0.68,0.12,1.37,0.24,2.33,0.41
		c-1.5,1.13-1.53,1.38-0.6,2.25c0.42,0.39,0.84,0.79,1.26,1.18c0.49,0.45,1.48,0.63,0.85,1.69c-0.07,0.13,0.28,0.53,0.47,0.78
		c0.99,1.31,2.06,2.57,2.95,3.94c0.9,1.39,1.35,3.16,2.45,4.31c2.43,2.55,3.65,6.17,7.06,7.87c0.73,0.37,1.16,1.33,1.98,2.33
		c-0.79,0-1.22,0.13-1.53-0.02c-8.06-3.94-16.26-7.62-24.1-11.96c-6.01-3.33-11.8-7.19-17.23-11.41c-4.1-3.18-7.6-7.19-11.15-11.03
		c-3.72-4.01-7.25-8.21-10.75-12.42c-2.37-2.85-4.55-5.87-6.99-9.04c3.9-1.13,6.89,0.08,9.58,2.63c0.14-0.15,0.27-0.29,0.41-0.44
		c-0.37-1.02-0.78-2.03-1.1-3.07c-0.31-1-0.53-2.02-0.79-3.05c1.6,0,3.18,0.25,4.64-0.06c2.54-0.54,3.74-2.28,4.02-4.94
		c0.16-1.48,0.46-2.7,2.37-3.22c1.19-0.32,2.08-1.78,3.07-2.77c0.8-0.8,1.54-1.67,2.29-2.49c1.28,0.54-0.02,2.98,2.31,2.5
		c0.07-0.99-0.18-1.95-1.02-2.73c-0.77-0.72-1.53-1.44-2.21-2.08c1.53-2.85,2.93-5.46,4.48-8.34c0.13,0.58,0.21,0.94,0.32,1.42
		c1.45-0.22,0.82-1.8,1.61-2.52C142.65,142.44,147.2,157.7,154.09,172.46z"/>
	<path d="M118.18,111.08c-1.36-2.05-2.58-3.84-3.73-5.68c-0.23-0.36-0.31-0.92-0.22-1.34c0.18-0.9,0.05-1.64-0.63-2.27
		c-3.14-2.9-4.22-6.85-5.49-10.71c-0.77-2.35-1.61-4.67-2.49-7.23c-0.43,2.77,0.04,6.09,1.18,9.55c0.33,1,1.38,1.93,0.43,3.16
		c-0.08,0.1,0.65,1.09,0.79,1.04c1.57-0.51,1.7,0.93,2.26,1.65c2.08,2.69,2.89,5.69,2.17,9.1c-0.41,1.93-0.17,2.24,1.65,2.97
		c0.04,2.46-0.1,4.75-2.26,6.63c-1.8,1.56-3.24,3.53-4.96,5.44c-0.38-0.29-0.78-0.61-1.46-1.14c-1.69,4.72-4.2,8.86-7.62,12.59
		c-2.49-2.81-4.73-5.76-6.15-9.31c-1.05-2.62-2.31-5.15-3.5-7.71c-0.24-0.52-0.46-1.21-0.89-1.47c-3.26-1.94-2.54-5.18-2.49-8.03
		c0.06-3.24,0.98-6.34,2.92-9.06c0.66-0.92,0.97-2.12,2.42-2.16c0.24-0.01,0.47-0.42,0.69-0.66c4.42-4.51,8.77-9.09,13.28-13.51
		c2.18-2.14,4.62-4.04,6.99-5.98c2.88-2.37,5.76-4.76,8.73-7.01c3.61-2.73,7.33-5.32,11.09-8.04c0.08,0.32,0.19,0.53,0.17,0.73
		c-0.5,4.79-0.11,9.55,0.23,14.33c0.41,5.62,0.69,11.25,1.03,16.88c0,0.08-0.02,0.18,0.01,0.25c1.34,3.12-0.51,4.81-2.66,6.63
		c-3.54,3-6.87,6.25-10.29,9.39C119.09,110.4,118.75,110.63,118.18,111.08z"/>
	<path d="M305.06,168.63c0.93,4.51,1.87,9.09,2.87,13.91c-4.92,0.75-9.56,1.45-14.31,2.17c-1.28-1.63-2.59-3.31-4.27-5.46
		c0,2.19,0,3.78,0,5.49c-3.26,0.67-6.34,1.37-9.43,1.92c-5.4,0.96-10.82,1.77-16.22,2.74c-2.33,0.42-4.62,0.4-6.94,0.09
		c-2.22-0.29-4.45-0.51-6.68-0.74c-3.94-0.41-7.89-0.83-11.84-1.22c-4.45-0.43-8.91-0.83-13.36-1.22c-1.3-0.11-2.61-1.65-2.49-3.46
		c0.1-1.46,0.27-3.12,1.03-4.28c1.68-2.57,2.33-5.4,2.91-8.3c0.13-0.64,0.34-1.27,0.57-2.09c5.53,0.62,11,1.2,16.45,1.87
		c3.18,0.4,6.31,1.14,9.5,1.39c2.21,0.18,4.46-0.2,6.69-0.37c1.07-0.08,2.13-0.26,3.21-0.35c3.78-0.31,7.55-0.6,11.33-0.88
		c1.56-0.11,3.13-0.11,4.69-0.26c3.05-0.3,6.09-0.71,9.14-0.99c1.12-0.1,2.27,0.06,3.4,0.04c1.08-0.03,2.21,0.05,3.22-0.26
		C297.96,167.33,301.35,167.36,305.06,168.63z"/>
	<path d="M214.79,197.55c-1.53-0.53-3.04-0.97-4.48-1.59c-0.55-0.24-1.02-0.82-1.34-1.36c-2.12-3.66-4.22-7.34-6.28-11.05
		c-2.54-4.57-5.01-9.18-7.55-13.75c-1.69-3.05-3.49-6.03-5.15-9.1c-0.67-1.23-1.12-2.58-1.61-3.9c-2.32-6.21-4.63-12.42-6.92-18.63
		c-0.76-2.06-1.48-4.13-2.38-6.64c2.92,1.5,5.48,0.86,8.08,0.41c2.68-0.47,5.38-0.64,8.14-0.4c2.18,0.18,4.41-0.36,7.06-0.62
		c2.75,5.77,4.76,12.14,7.05,18.39c2.31,6.27,4.65,12.53,6.78,18.91c-2.06-1.17-3.03-3.31-5-4.63c0.59,1.02,1.16,2.05,1.78,3.06
		c0.59,0.96,1.57,1.75,0.89,3.14c-0.13,0.27,0.38,1.15,0.79,1.36c2.48,1.25,3.3,3.7,4.34,5.94c0.62,1.34,0.89,2.84,1.31,4.27
		c0.21,0.71,0.21,1.59,0.64,2.12c1.61,1.97,1.15,4.44,1.77,6.64c0.29,1.04-0.36,1.7-1.14,2.28
		C219.39,194.05,217.21,195.72,214.79,197.55z"/>
	<path d="M328.5,131.71c3.76,0.82,7.23,0.6,10.62,1.62c1.62,0.49,3.22,0.81,4.71,1.7c0.46,0.28,1.3,0.12,1.91-0.06
		c1.88-0.55,3.73-1.21,5.85-1.91c-1.43,3.96-2.81,7.83-4.23,11.67c-1.41,3.8-3.03,7.54-4.28,11.39c-1.26,3.91-3.28,7.43-5.23,10.98
		c-2.83,5.17-5.76,10.29-8.64,15.43c-2.39,4.27-4.8,8.53-7.14,12.83c-1.07,1.97-3.23,1.85-4.88,2.7c-1.19,0.61-2.01-0.44-2.87-1.04
		c-1.02-0.71-1.99-1.5-2.98-2.25c-0.93-0.69-1.87-1.37-3.12-2.29c0.77-8.42,4.07-16.09,8.5-23.61c-0.46,0-0.67-0.04-0.86,0.01
		c-0.23,0.06-0.44,0.19-0.85,0.37c-0.13-0.5-0.48-1.12-0.32-1.32c2.11-2.54,2.18-5.87,3.43-8.74c1.26-2.88,2.3-5.86,3.39-8.82
		c1.63-4.42,3.21-8.86,4.84-13.27C327,135.36,327.74,133.63,328.5,131.71z"/>
	<path d="M229.71,163.96c-1.08-1.48-1.59-3.03-1.15-5.03c0.72-3.3,1.09-6.67,1.66-10c0.12-0.72,0.48-1.4,0.67-1.94
		c1.18-0.09,2.2-0.27,3.2-0.23c3.72,0.11,7.44,0.31,11.16,0.44c1.83,0.06,3.66,0.04,5.49,0.04c6.34-0.01,12.67,0.13,19-0.38
		c0.88-0.07,1.8,0.32,2.7,0.34c5.4,0.13,10.8,0.21,16.2,0.32c2.98,0.06,5.96,0.14,9.11,0.21c1.25,4.08,2.15,8.05,2.55,12.16
		C276.63,161.24,253.22,162.6,229.71,163.96z"/>
	<path d="M129.9,376.36c-2.44,6.67-4.8,13.12-7.16,19.58c-0.15,0.4-0.31,0.78-0.72,1.03c-2.08-3.22-1.71-6.6-2.26-9.78
		c-0.55-3.16-0.96-6.35-1.47-9.78c-1.09,0.34-1.96,0.56-2.79,0.87c-2.64,1-5.27,2.05-7.91,3.06c-2.45,0.93-3.43,0.2-3.24-2.48
		c0.28-4.1,0.61-8.19,0.91-12.26c-3.22-1.51-6.67-1.33-9.99-1.87c-0.24-0.04-0.5-0.01-0.75-0.03c-3.55-0.37-3.84-0.84-2.24-4.06
		c1.51-3.04,3.1-6.04,4.63-9.07c0.93-1.83,0.95-2.02-0.54-3.43c-2.82-2.68-5.71-5.29-8.58-7.93c-0.79-0.72-1.61-1.41-1.68-2.76
		c0.47-0.08,0.85-0.15,1.23-0.21c1.13-0.19,2.31-0.23,3.37-0.61c2.25-0.82,4.44-1.8,6.64-2.75c3.48-1.5,4.18-2.17,0.99-5.02
		c-3.21-2.87-6.42-5.75-9.59-8.67c-1.08-0.99-2.06-2.08-3.08-3.13c0.09-0.15,0.18-0.3,0.27-0.45c0.69,0.14,1.37,0.3,2.06,0.43
		c3.81,0.75,7.63,1.49,11.44,2.23c1.3,0.25,2.6,0.6,3.92,0.73c1.84,0.18,3.7,0.2,5.66,0.29c-0.13,0.35-0.25,0.99-0.58,1.51
		c-3.62,5.8-5.6,12.2-6.83,18.86c-0.51,2.79-0.53,5.54-0.03,8.4c0.56,3.22,1.25,6.33,2.78,9.23c-0.75,2.58,1.17,4.09,2.47,5.72
		c1.37,1.73,3.08,3.22,4.74,4.7c4.24,3.79,9.49,5.73,14.66,7.76C127.16,376.84,128.41,376.42,129.9,376.36z"/>
	<path d="M71.27,287.93c3.31-6.66,3.1-13.29,0.15-20.31c1,0.32,1.51,0.46,2,0.64c0.85,0.31,1.68,0.74,2.55,0.96
		c4.57,1.16,9.13,2.32,13.72,3.37c2.08,0.47,4.31,0.39,6.31,1.04c3.34,1.09,6.81,1.2,10.22,1.8c2.42,0.43,4.91,0.5,7.37,0.71
		c2.27,0.19,4.55,0.38,6.82,0.54c2.88,0.21,5.82,0.11,8.64,0.65c3.28,0.62,6.45,0.19,9.66-0.13c0.94-0.09,1.9-0.43,3.21,0.54
		c-1.23,0.33-2.04,0.51-2.84,0.76c-6.51,1.99-13.02,3.95-19.51,6.02c-4.46,1.43-9.06,2.16-13.67,2.66
		c-5.36,0.57-10.75,0.86-16.14,1.02c-5.71,0.17-11.42,0.04-17.13,0.02C72.27,288.21,71.89,288.06,71.27,287.93z"/>
	<path d="M258.16,81.24c-0.82,2-2.26,2.04-3.81,1.99c-4.3-0.11-4.32-0.08-6.33-3.79c-0.95-1.75-1.7-3.61-2.74-5.29
		c-0.85-1.36-0.99-2.76-0.96-4.27c0.05-1.97,0.01-3.94,0.01-5.99c2.6-0.25,4.82-0.39,7.13,0.04c2.74,0.51,5.58,0.48,8.37,0.81
		c1.21,0.14,2.44,0.43,3.55,0.92c1.41,0.63,2.56,0.68,3.96-0.18c0.99-0.62,2.34-0.95,3.52-0.93c4.55,0.09,9.13-0.56,13.65,0.56
		c0.63,0.16,1.4-0.26,2.16-0.42c0.15,2.25,0.37,4.38,0.41,6.52c0.02,0.8-0.22,1.68-0.57,2.4c-1.72,3.49-3.51,6.95-5.27,10.39
		c-1.27,0-2.34,0.03-3.4,0c-5.29-0.16-10.58-0.29-15.87-0.54c-0.81-0.04-1.6-0.63-2.37-1.04C259.19,82.2,258.85,81.82,258.16,81.24z
		"/>
	<path d="M252.76,137.97c-1.99,2.74-4.9,2.4-7.84,2.29c-2.57-0.09-5.15,0.18-7.72,0.23c-1.76,0.03-2.14-0.33-2.36-2.1
		c-0.09-0.74-0.09-1.49-0.14-2.26c0.65-0.72,1.3-1.44,2.04-2.26c-0.68-0.98-1.33-1.91-2.24-3.23c0.38-0.2,0.73-0.55,1.09-0.56
		c1.1-0.04,1.8-0.56,2.48-1.39c0.88-1.07,2.15-1.5,3.56-1.48c7.72,0.1,15.44,0.24,23.15,0.25c4.81,0.01,9.62-0.2,14.44-0.26
		c2.14-0.02,4.29,0.02,6.43,0.19c0.55,0.04,1.19,0.53,1.57,1c0.51,0.64,0.82,1.44,1.18,2.18c0.91,1.86,1.79,3.73,2.71,5.58
		c0.97,1.93-0.02,3.47-2.17,3.43c-3.48-0.07-6.99-0.37-10.43-0.03c-4.4,0.43-8.78-0.12-13.16,0.15c-1.65,0.1-3.29,0.38-4.94,0.48
		c-2.37,0.15-4.67-0.04-6.55-1.77C253.65,138.23,253.28,138.18,252.76,137.97z"/>
	<path d="M146.94,9c0.13,3.23,0.25,6.26,0.38,9.29c0.16,3.48,0.3,6.96,0.51,10.44c0.3,5.02,0.62,10.03,1.01,15.04
		c0.21,2.79,0.54,5.56,0.89,8.34c0.3,2.39,0.17,4.57-1.72,6.43c-0.99,0.97-1.66,2.27-2.46,3.43c-0.14,0.2-0.32,0.46-0.29,0.67
		c0.31,2.47-1.35,4.04-2.71,5.63c-2.29,2.69-4.8,5.2-7.63,8.23c-0.25-2.15-0.57-3.65-0.57-5.16c0.01-3.15,0.19-6.3,0.28-9.45
		c0.04-1.41-0.02-2.82,0.09-4.23c0.55-7.16,0.99-14.34,1.78-21.48c0.36-3.26,1.41-6.45,2.14-9.61c0.89,0,1.53,0.06,2.15-0.01
		c2.01-0.22,2.2-0.5,1.89-2.62c-0.15-1.06-0.32-2.12-0.47-3.18c-0.29-2.06-0.3-4.07,0.65-6.04c0.68-1.41,1.07-2.95,1.72-4.38
		C145.1,9.25,145.19,9.29,146.94,9z"/>
	<path d="M318.77,118c1.53,0.19,2.8,0.38,4.09,0.5c2.15,0.19,4.32,0.22,6.45,0.52c5.35,0.74,10.71,0.78,16.09,0.71
		c4.23-0.06,8.47,0.2,12.7,0.27c2.93,0.05,3.18-0.04,5.76-1.19c-0.21,2.51-0.69,4.82-1.68,7c-0.37,0.83-0.9,1.59-1.36,2.38
		c-1.6,2.77-1.98,2.88-5.17,2.4c-1.79-0.27-3.62-0.26-5.44-0.41c-1.82-0.15-3.63-0.28-5.44-0.51c-7.42-0.91-14.85-1.62-22.33-0.7
		c-0.89,0.11-1.81,0.01-2.64,0.01c-1.48-3.31-1.48-3.31,0.16-4.86c0.01-0.08,0.03-0.23,0.02-0.24c-0.37-0.11-0.74-0.2-1.22-0.32
		C318.77,121.71,318.77,119.82,318.77,118z"/>
	<path d="M246.93,109.57c3.07-0.14,6.34-0.38,9.62-0.42c5.88-0.07,11.76,0.03,17.64-0.05c2.3-0.03,4.02,1.39,6.05,2.02
		c0.25,0.08,0.34,0.71,0.51,1.08c0.62,1.34,1.19,2.71,1.87,4.02c1,1.92,0.27,3.24-1.97,3.27c-4.49,0.05-8.99-0.04-13.48,0.03
		c-7.47,0.12-14.95,0.32-22.42,0.49c-1.06,0.02-2.2,0.33-2.83-0.92c-0.59-1.18-0.01-2.02,0.75-2.89c0.54-0.62,0.9-1.39,1.37-2.08
		c0.54-0.79,1.14-1.55,1.67-2.35C246.09,111.18,246.39,110.54,246.93,109.57z"/>
	<path d="M211.98,117.99c0.19,0.8,0.42,1.82,0.7,3.03c-1.14,0.14-2.17,0.26-3.54,0.42c0.28,0.79,0.5,1.41,0.76,2.15
		c0.95-0.33,1.69-0.6,2.88-1.02c-0.49,1.49-0.87,2.62-1.3,3.93c-5.19,0.41-10.37,0.8-15.54,1.23c-5.37,0.44-10.74,0.89-16.11,1.36
		c-2.14,0.19-4.28,0.47-6.42,0.63c-3.1,0.23-4.77-0.99-5.52-3.97c-0.32-1.28-0.61-2.56-0.95-3.98c5.4,0.66,10.52-0.87,15.73-1.37
		c4.18-0.4,8.33-1.16,12.49-1.77c0.33-0.05,0.66-0.1,0.99-0.11C201.37,118.34,206.59,118.17,211.98,117.99z"/>
	<path d="M219.51,128.87c0.46,4.66-0.67,25.67-1.65,29.94c-0.35-0.33-0.74-0.53-0.88-0.84c-3.95-9.25-7.87-18.51-11.97-28.18
		C210.24,130.9,214.87,129.81,219.51,128.87z"/>
	<path d="M313.31,160.82c-1.29-9.7-2.54-19.01-3.8-28.52c0.99,0.13,2.15,0.31,3.33,0.42c1.23,0.11,2.5,0,3.7,0.24
		c2.9,0.58,5.77,1.1,8.61-0.54c0.02,0.35,0.13,0.63,0.04,0.82c-4.01,8.57-7.64,17.28-10.89,26.17
		C314.14,159.83,313.76,160.18,313.31,160.82z"/>
	<path d="M165.55,75.52c-2.88,1.73-5.69,3.41-8.86,5.32c-0.31-1.9-0.66-3.56-0.86-5.24c-0.85-7.07-1.69-14.15-2.45-21.23
		c-0.14-1.28-0.06-2.62,0.16-3.88c0.21-1.19,0.73-2.33,1.18-3.68c2.01,0.48,3.47-0.74,5-1.87c1.2-0.88,2.51-1.63,3.8-2.38
		c0.36-0.21,0.84-0.22,1.28-0.32c0.02,0.3,0.06,0.44,0.03,0.46c-2.66,1.6-3.32,4.33-4.06,7.05c-0.39,1.44-0.8,2.91-1.46,4.23
		c-2.14,4.24-1.51,8.32,0.42,12.4C161.27,69.59,163.07,72.64,165.55,75.52z"/>
	<path d="M371.79,44.25c2.17,1.57,3.62,4.08,6.6,2.93c-0.21,2.43-0.37,4.64-0.58,6.84c-0.32,3.22-0.66,6.43-1.02,9.64
		c-0.03,0.31-0.11,0.73-0.33,0.9c-1.5,1.21-1.41,2.82-1.36,4.52c0.03,1.04-0.52,2.09-0.6,3.14c-0.09,1.28,0.01,2.58,0.08,3.87
		c0.07,1.47,0.2,2.94,0.34,5.02c-3.34-1.94-6.22-3.61-9.14-5.31c0.5-4.1,2.3-7.7,4.28-11.23c0.12-0.22,0.2-0.58,0.38-0.62
		c1.56-0.45,1.42-2.04,2.15-3.03c1.9-2.55,1.48-5.29,0.97-8.06C373.05,50.12,372.44,47.39,371.79,44.25z"/>
	<path d="M255.69,101.43c0.52-2.03,1.02-3.95,1.47-5.69c4.26,0,8.4-0.11,12.53,0.06c1.62,0.07,3.23,0.73,4.83,1.16
		c3.3,0.88,6.28,3.08,10.4,1.99c-1.01,1.66-1.69,2.87-2.46,4.02c-0.42,0.62-1,0.88-1.89,0.89c-6.12,0.06-12.23-0.44-18.34-0.62
		c-0.33-0.01-0.67-0.01-1,0C258.28,103.35,258.28,103.35,255.69,101.43z"/>
	<path d="M297.17,95.45c3.75,4.37,8.9,6.8,13.55,9.94c0.61,0.41,1.65,0.39,1.19,1.71c-0.18,0.52,1.66,0.51,1.01,1.79
		c-0.13,0.25,0.27,0.91,0.59,1.21c1.09,1.07,2.24,2.07,3.6,3.31c-3.07,2.18-5.79,4.12-8.7,6.19c-4.05-8.18-7.92-15.99-11.79-23.81
		C296.79,95.68,296.98,95.57,297.17,95.45z"/>
	<path d="M220.49,116.51c-2.69-1.2-5.17-2.31-7.75-3.46c1.07-1.65,2.07-3.24,3.13-4.79c0.25-0.36,0.72-0.58,1.1-0.85
		c0.33-0.23,0.97-0.45,0.97-0.66c-0.08-2.13,1.81-2.33,3.03-3.17c4.23-2.93,8.46-5.84,12.7-8.75c0.37-0.25,0.82-0.4,1.43-0.33
		C230.27,101.78,225.44,109.05,220.49,116.51z"/>
	<path d="M382.56,442.34c0-1.21,0-2.25,0-3.4c-0.98,0.68-1.92,1.34-3.35,2.34c0.34-1.07,0.42-1.55,0.63-1.96
		c1.64-3.16,3.3-6.3,4.99-9.43c0.22-0.42,0.59-0.96,0.98-1.05c3.51-0.83,5.77-3.55,8.44-5.6c4.07-3.12,8.01-6.43,11.88-9.81
		c2.8-2.45,5.49-5.04,8.03-7.74c2.43-2.58,4.34-5.7,6.98-8c1.93-1.69,3.5-3.64,5.3-5.4c0.3-0.29,0.76-0.58,0.81-0.92
		c0.36-2.63,2.36-4.15,3.99-5.87c0.61-0.64,1.7-0.84,2.59-1.19c0.95-0.37,1.93-0.68,3.15-1.1c-1.6-1.63-1.78-2.92-0.66-4.65
		c2.15-3.3,3.63-7.1,6.09-10.12c1.68-2.05,2.4-4.42,3.7-6.56c1.18-1.95,3.01-3.4,3.47-5.99c0.42-2.35,2.11-4.46,3.19-6.7
		c1.04-2.17,2.09-4.35,3.02-6.57c2.67-6.35,5.29-12.7,7.24-19.33c0.48-1.63,1.53-3.1,2.3-4.64c0.63-1.25,1.24-2.52,1.94-3.93
		c0.4,0.11,0.84,0.23,1.27,0.36c0.78-0.52,0.78-1.12,0.42-1.94c-0.37-0.82-0.61-1.71-0.78-2.59c-0.24-1.29-0.33-2.54,0.5-3.76
		c0.44-0.64,0.53-1.56,0.63-2.37c0.37-3,0.62-6.02,1.01-9.01c0.48-3.69,1.13-7.37,1.56-11.06c0.45-3.83,0.72-7.68,1.06-11.53
		c0.32-3.62,0.62-7.24,0.94-10.99c2.05,0.65,3.82-0.42,5.72-1.25c3.16-1.39,6.41-2.56,9.79-3.89c0.64,0.39,1.3,0.91,2.04,1.21
		c0.82,0.32,1.73,0.59,2.6,0.59c1.53-0.01,1.89-0.55,1.77-2.15c-0.12-1.54,1.17-3.64,2.58-3.72c2.1-0.12,3.81-1.05,5.52-2.08
		c0.19-0.11,0.45-0.11,0.93-0.22c0,0.92,0,1.73,0,2.53c0.03,5.66,0.15,11.33,0.04,16.99c-0.06,3.21-0.46,6.42-0.76,9.63
		c-0.28,3.05-0.7,6.08-0.93,9.13c-0.13,1.8-0.5,3.27-2.51,3.77c-0.47,0.12-0.88,0.47-1.34,0.67c-0.88,0.38-1.34,0.95-1.08,1.95
		c0.26,0.99,0.9,1.53,1.91,1.66c1.71,0.21,1.79,0.22,1.57,1.81c-0.33,2.38-0.64,4.78-1.21,7.11c-1.86,7.57-3.69,15.15-5.81,22.65
		c-2.28,8.06-5.18,15.92-8.63,23.56c-2.15,4.77-4.17,9.6-6.55,14.24c-1.29,2.51-2.87,5.03-5.55,6.39c-1.45,0.73-3.04,1.18-4.57,1.76
		c0.37,1.78,0.45,1.94,2.64,4.83c-1.4,5.4-17.71,27.87-29.86,41.13c-0.44-0.11-1-0.45-1.31-0.29c-1.12,0.55-2.34,1.09-3.17,1.97
		c-0.81,0.85-1.59,1.92-1.42,3.34c0.12,1.01-0.69,1.41-1.5,1.73c-2.15,0.86-4.3,1.75-6.64,2.7c0.65,0.93,1.3,1.85,2.05,2.91
		c-2.78,2.39-5.52,4.78-8.3,7.13c-3.62,3.06-7.12,6.26-10.92,9.07c-5.82,4.29-11.83,8.32-17.8,12.39c-0.69,0.47-1.67,0.5-2.5,0.78
		c-0.33,0.11-0.63,0.33-0.92,0.53c-1.35,0.94-2.67,1.92-4.04,2.82c-1.04,0.68-2.19,1.2-3.21,1.92c-1.44,1.01-2.91,1.69-4.72,2.03
		c-1.96,0.37-3.79,1.52-5.62,2.46c-1.25,0.64-2.37,1.52-3.57,2.25c-0.34,0.2-0.77,0.34-1.16,0.35c-1.41,0.05-2.58,0.19-2.89,2.03
		c-0.09,0.53-1.27,0.95-2.02,1.27c-2.13,0.93-4.31,1.76-6.45,2.67c-1.03,0.44-2.02,0.96-3.03,1.45c-0.11-0.15-0.22-0.3-0.33-0.44
		c1.15-1.09,2.25-2.22,3.46-3.25c0.5-0.42,1-0.59,1.06-1.46c0.04-0.59,0.84-1.16,1.35-1.68c0.58-0.58,1.55-0.99,1.78-1.67
		c1.01-3.03,3.76-4.37,5.81-6.38c0.4-0.39,0.89-0.89,0.94-1.39c0.35-3.47,2.05-6.45,3.42-9.54c0.48-1.07,1.2-1.93,2.61-2.53
		c1.5-0.63,3.29-1.97,3.19-4.31c-0.04-0.89,0.17-1.82,0.46-2.67c0.22-0.66,0.78-1.76,1.11-1.73
		C380.01,444.75,380.84,442.52,382.56,442.34z"/>
	<path d="M422.15,319.75c0.78,0.13,1.34,0.21,1.88,0.33c1.47,0.31,2.89,0.29,4.39-0.1c2.47-0.63,5.01-1.01,7.52-1.46
		c3.15-0.57,6.31-1.1,9.69-1.69c-0.55,1.48-1.74,2.35-2.75,3.31c-3.51,3.3-7.08,6.53-10.61,9.81c-1.53,1.43-1.44,2.24,0.45,3.09
		c3.02,1.37,6.08,2.66,9.15,3.92c0.49,0.2,1.12,0.09,1.69,0.1c0.63,0.01,1.27,0,1.99,0c-0.33,2.1-1.76,3.18-3.01,4.34
		c-2.19,2.04-4.46,3.99-6.69,5.98c-1.81,1.62-1.64,1.99-0.98,4.28c1,3.47,3.47,6.1,4.79,9.35c0.31,0.75,0.66,1.47,1.06,2.34
		c-2.5,1.6-5.18,1.58-7.79,1.87c-2.13,0.24-4.26,0.57-6.7,0.91c0.13,1.83,0.24,3.44,0.36,5.06c0.04,0.49,0.16,0.98,0.2,1.47
		c0.12,1.64,0.28,3.29,0.31,4.93c0.02,1.37,0.36,2.85-0.98,4.09c-4.42-0.74-8.36-3.33-12.98-4.21c-0.86,6.58-1.76,12.88-2.68,19.18
		c-0.27,0.04-0.54,0.07-0.81,0.11c-0.46-0.7-1.07-1.35-1.37-2.12c-2-5.18-3.95-10.39-5.87-15.6c-0.31-0.83-0.38-1.75-0.62-2.91
		c3.37,1.18,6.05-0.42,8.8-1.68c4.16-1.91,8.18-4.07,11.44-7.32c1.79-1.78,3.26-3.89,4.86-5.86c0.15-0.19,0.33-0.47,0.3-0.67
		c-0.58-3.34,1.47-6.07,2.3-9.03c1.27-4.52,0.83-8.76-0.12-13.17c-1.32-6.15-3.7-11.86-6.7-17.35
		C422.52,320.72,422.4,320.34,422.15,319.75z"/>
	<path d="M460.09,267.47c-2.83,6.93-3.74,13.67,0.38,20.43c-0.42,0.22-0.69,0.48-0.96,0.48c-2.48,0.06-4.96,0.11-7.44,0.11
		c-2.89-0.01-5.78-0.02-8.67-0.13c-4.8-0.18-9.63-0.16-14.38-0.72c-5.92-0.7-11.86-1.41-17.59-3.33
		c-6.13-2.06-12.37-3.83-18.55-5.75c-0.91-0.28-1.79-0.63-2.68-0.95c0.04-0.18,0.09-0.36,0.13-0.55c0.86,0.05,1.74,0,2.57,0.18
		c3.55,0.77,7.12,0.37,10.67,0.15c4.36-0.28,8.72-0.69,13.07-1.16c3.7-0.39,7.36-1.15,11.07-1.38c7.76-0.48,15.09-3.08,22.72-4.23
		C453.76,270.13,457.13,269.43,460.09,267.47z"/>
	<path d="M330.38,271.81c-0.09,0.77-0.25,1.34-0.19,1.89c0.13,1.09-0.02,2.24,1.68,2.55c1.34,0.25,1.74,1.66,1.37,3.57
		c-0.67-0.57-1.26-1.07-1.95-1.66c-1.29,1.28-1.18,2.98-1.84,4.55c-2.19,0.24-2.7,1.81-2.64,3.84c0.06,2.05,0.01,4.11,0.01,6.55
		c-0.87-0.43-1.37-0.68-2.11-1.05c0,1.91,0,3.76,0,5.62c-0.14,0.06-0.28,0.13-0.42,0.19c-0.37-0.69-0.75-1.38-1.12-2.07
		c-0.22,0.17-0.45,0.35-0.67,0.52c-0.23,1.28-0.46,2.55-0.77,4.33c-1.29-1.56-2.22-2.67-3.47-4.17c-0.65,1.73-1.27,3.07-1.65,4.47
		c-0.26,0.98,0.02,1.12,1.41,1.2c0.48,2.46,1.14,3.1,3.53,3.38c1.81,0.21,3.63,0.32,5.41,0.67c0.83,0.16,1.57,0.77,2.73,1.37
		c0.17-0.04,0.78-0.18,1.29-0.3c1.02,0.64,0.75,1.85-0.86,4.12c2.48,2.23,4.95,4.5,7.47,6.71c2.45,2.14,4.96,4.22,7.27,6.71
		c-3.09-1.05-6.19-2.09-9.57-3.23c-0.28,2.27-0.24,4.35,0.23,6.59c-2.08-0.09-2.48-1.98-3.68-2.84c-1.35-0.96-2.53-2.16-3.88-3.1
		c-1.27-0.89-2.67-1.58-4.18-2.45c0,1.5,0,2.87,0,4.82c-1.03-0.84-1.68-1.39-2.36-1.91c-1.44-1.11-2.8-2.38-4.37-3.27
		c-2.82-1.61-5.29-0.44-6.1,2.69c-0.61,2.36-0.72,4.73,0.02,7.09c0.05,0.16,0.21,0.31,0.19,0.45c-0.38,4.63,3.51,6.04,6.37,7.97
		c2.08,1.41,4.68,2.08,7.07,3c0.84,0.32,1.76,0.46,2.66,0.58c2.46,0.33,3.18-0.45,2.69-2.82c-0.08-0.4-0.09-0.81-0.17-1.66
		c1.47,1.74,2.66,3.15,3.86,4.56c1.65,1.96,1.78,1.96,4.03,0.66c0.47-0.27,1.08-0.31,1.61-0.45c1.13,1.24,1.82,2.82,3.81,3.05
		c-0.15,1.08-0.05,1.89,1.14,2.81c2.06,1.6,2.85,4.17,2.98,6.81c2.23,2.31,4.29,4.77,5.44,7.86c1.05,2.85,2.23,5.67,3.07,8.58
		c1.99,6.85,2.39,13.89,2.09,20.98c-0.03,0.74,0,1.49-0.01,2.23c-0.02,2.58-0.03,5.15-1.15,7.58c-0.49,1.05-0.78,2.19-1.15,3.29
		c-0.5,1.49-0.83,3.07-1.54,4.46c-0.7,1.38-1.78,2.57-2.79,3.96c0.75,0.47,1.49,0.94,2.25,1.43c-1.05,1.86-2.04,3.64-3.08,5.4
		c-0.42,0.71-0.9,1.4-1.41,2.05c-1.24,1.58-2.68,2.43-4.89,2.29c-3.71-0.23-7.46,0.14-11.17-0.11c-8.26-0.57-16.49-1.37-24.74-2.07
		c-0.66-0.06-1.33-0.08-1.99-0.09c-8.07-0.1-16.13-0.19-24.2-0.29c-0.41-0.01-0.81-0.06-1.47-0.11c0.64-2.25,1.2-4.38,1.85-6.48
		c1.28-4.15,1.48-8.34,0.38-12.52c-0.8-3.04-2.71-5.35-5.77-6.38c-3.23-1.09-6.16,0.89-6.78,4.25c-0.58,3.17-0.14,6.28,0.39,9.37
		c0.62,3.67,1.46,7.3,2.18,10.95c0.09,0.46,0.01,0.96,0.01,1.56c-1.5-0.13-2.18-1.17-2.8-2.05c-1.34-1.89-2.73-3.81-3.69-5.9
		c-2.87-6.22-7.27-10.86-12.3-14.9c-0.25-1.45-0.49-2.79-0.76-4.36c-1.04,0.34-1.7,0.56-2.5,0.82c-0.89-1.39-1.78-2.67-2.56-4.02
		c-0.74-1.29-1.36-2.64-2.08-4.06c-0.96,1.48-1.71,3.04-2.84,4.25c-1.11,1.18-2.6,2-4.33,3.28c0-2.46,0-4.48,0-6.49
		c-0.09,0-0.18,0.01-0.27,0.01c-0.85,2.21-1.55,4.49-2.6,6.59c-0.64,1.29-1.73,2.41-2.78,3.44c-0.77,0.76-1.8,0.78-2.72,0.04
		c-0.31-0.25-0.64-0.49-1.19-0.91c-2.08,4.14-4.08,8.14-6.13,12.12c-0.49,0.95-1.13,1.84-1.77,2.71c-1.17,1.6-2.56,3.05-3.56,4.75
		c-2.47,4.22-4.76,8.53-7.18,12.91c-0.39-0.11-0.92-0.27-1.41-0.41c-0.16,0.18-0.34,0.28-0.36,0.41c-0.08,0.49-0.33,1.09-0.14,1.47
		c0.95,1.91-0.07,3.51-0.71,5.16c-4.15,10.61-7.64,21.42-10.02,32.57c-0.31,1.46-0.58,2.92-0.94,4.37c-0.1,0.42-0.44,0.78-0.9,1.54
		c-0.3-0.82-0.49-1.23-0.6-1.66c-1-4.11-2.07-8.21-2.95-12.35c-0.3-1.42-0.18-2.95-0.09-4.42c0.08-1.36,0.28-2.63-1.19-3.5
		c-0.4-0.23-0.65-0.95-0.71-1.47c-0.34-2.7-0.65-5.41-0.85-8.12c-0.12-1.65-0.07-3.32-0.02-4.98c0.08-2.39,0.22-4.79,0.34-7.29
		c-0.45,0.16-1,0.35-1.66,0.59c-1.08-2.09-0.72-4.15-0.51-6.18c0.35-3.28,0.87-6.55,1.15-9.83c0.09-1.01-0.28-2.09-0.6-3.09
		c-0.31-0.97-1.12-1.38-2.14-1.4c-1.83-0.04-3.42,0.64-4.92,1.57c-4.12,2.54-7.9,5.52-11.3,8.96c-0.79,0.8-0.8,0.8-2.3,1.37
		c0.26-0.78,0.33-1.41,0.64-1.89c3.02-4.71,4.79-10.02,7.16-15.05c1.98-4.2,3.83-8.46,5.81-12.66c0.34-0.72,0.94-1.38,1.56-1.88
		c1.79-1.47,3.64-2.86,5.49-4.25c1.48-1.11,0.32-2.21,0.05-3.32c-0.93,0.38-1.87,0.76-3.21,1.31c0.19-0.95,0.22-1.42,0.39-1.84
		c0.66-1.61,1.39-3.19,2.03-4.8c1.45-3.62,1.44-3.63,4.44-5.73c-0.2-0.38-0.4-0.78-0.47-0.91c1.06-1.06,2.02-2.03,2.82-2.85
		c-0.37-0.69-0.82-1.23-0.72-1.4c0.79-1.22-0.48-1.51-0.88-2.06c1.31-4.64,2.77-9.15,3.83-13.74c0.91-3.94,1.36-7.99,2-12
		c0.18-1.14,0.4-2.28,0.48-3.43c0.2-2.93-0.51-5.76-1.06-8.6c-0.95-4.87-7.08-8.28-11.57-7.11c-1.83,0.48-3.77,0.61-5.66,0.77
		c-0.76,0.06-1.54-0.24-2.31-0.37c-0.06-0.19-0.11-0.38-0.17-0.57c0.86-0.66,1.63-1.63,2.6-1.91c1.36-0.39,0.81-1.1,0.68-1.98
		c1.99-0.6,2.62-2.25,2.91-4.14c0.07-0.46,0.18-1.13,0.49-1.31c1.9-1.08,2.11-3.06,2.58-4.55c2.92-0.7,4.91-2.56,7.12-3.74
		c-0.24-1.11-0.45-2.05-0.68-3.11c-1.03,0.17-2.15,0.34-3.2,0.51c0.64-2.06,1.2-4.02,1.86-5.93c0.57-1.64,0.77-3.48,3.03-4.02
		c1.03-0.24,0.62-1.3,0.2-1.86c0.9-1.2,1.72-2.33,2.6-3.41c0.62-0.77,1.23-1.59,2-2.19c1.46-1.16,2.7-2.43,3.41-4.19
		c0.2-0.5,0.59-1.02,1.03-1.32c2.48-1.68,4.58-4.13,8.01-3.93c0.5,0.03,1.05-0.45,1.56-0.72c1.67-0.91,3.34-1.83,5.01-2.75
		c0.36-0.2,0.78-0.35,1.03-0.64c0.81-0.95,0.45-2.13-0.77-2.19c-0.95-0.05-1.93,0.28-2.88,0.52c-1.23,0.32-2.43,0.72-3.86,0.74
		c0.33-0.42,0.57-1.04,1-1.24c3.63-1.66,6.99-3.72,10.24-6.05c2.99-2.14,6.21-3.99,9.44-5.78c2.38-1.32,4.98-2.24,7.41-3.48
		c5.87-2.99,12.19-4.78,18.34-7c3.19-1.15,6.48-2.07,9.77-2.89c5.6-1.39,11.25-2.58,16.86-3.96c1.51-0.37,2.91-1.14,4.38-1.66
		c1.22-0.43,2.47-0.78,3.81-0.85c-1.9,0.9-3.79,1.79-5.72,2.71c0.62,1.33,1.43,1.33,2.42,1.15c1.78-0.31,3.57-0.51,5.45-0.36
		c-2.24,0.69-4.49,1.34-6.72,2.07c-4.86,1.59-9.29,4.04-13.44,6.97c-2.84,2.01-5.63,4.13-8.22,6.45c-1.97,1.76-3.76,3.79-5.34,5.91
		c-2.98,3.98-5.93,7.97-8.29,12.41c-2.86,5.37-5.17,10.95-7.13,16.65c-1.43,4.19-3.07,8.42-2.92,13.04
		c0.05,1.68-0.55,3.37-0.84,5.03c1.79,1.01,3.33,0.43,4.78-0.04c4.48-1.43,8.92-3.01,13.39-4.49c3.33-1.1,6.44-2.67,9.32-4.64
		c1.14-0.78,2.07-1.89,3.24-2.62c2.3-1.43,4.72-2.65,7.04-4.04c1.05-0.63,2.06-1.37,2.9-2.24c0.4-0.42,1.46-1.22,0.1-1.91
		c0.53-0.95,0.83-2.26,1.64-2.77c4.09-2.63,8.76-2.81,13.45-2.81c3.66,0,7.01-0.95,9.81-3.45c1.4-1.25,3.19-2.22,4.17-3.73
		c0.81-1.24,2.23-1.95,2.65-3.47c0.36-1.29,1.39-1.72,2.68-1.81c3.06-0.21,6.1-0.49,8.97,1.06
		C328.5,271.88,329.36,271.72,330.38,271.81z M263.26,343.82c0.54,1.16,1.31,1.63,2.61,1.14c0.49-0.18,1.24-0.21,1.65,0.05
		c1.75,1.08,3.72,2.02,5.01,3.53c1.07,1.25,2.37,2.01,3.58,2.95c1.17,0.9,2.41,0.78,3.68-0.12c-1.04-1.54-2.27-2.86-2.93-4.42
		c-1.35-3.2-2.19-6.58-3.17-9.92c-0.98-3.35-0.82-6.82-1.8-10.11c-0.06-0.21,0.1-0.47,0.13-0.72c0.17-1.39,0.33-2.78,0.54-4.51
		c-2.13,1.51-3.94,2.8-5.75,4.09c-2.65,1.87-5.32,3.71-7.93,5.62c-1.44,1.06-1.96,2.85-1.25,4.01c0.74,1.2,1.4,2.5,2.38,3.47
		c1.02,1.01,2.38,1.66,3.85,2.64C263.7,342.07,263.51,342.83,263.26,343.82z M264.1,310.13c-5.91,2.4-11.63,4.73-17.46,7.1
		c0.42,1.09,0.77,1.92,1.06,2.76c0.23,0.7,0.61,1.45,0.52,2.12c-0.27,1.97,0.65,3.14,2.25,4.15c2.9-1.85,5.65-3.71,8.5-5.41
		c2.84-1.69,5.33-3.95,8.55-5.04c1.01-0.34,1.8-1.33,2.39-1.8c-0.31-1.25-0.5-2.04-0.69-2.81c-1.84-0.29-3.63,1.02-5.55,0.37
		C263.83,311.05,263.93,310.71,264.1,310.13z"/>
	<path d="M208.97,478.09c-2.22-2.18-4.84-4.03-6.22-7.02c-0.57-1.23-0.64-2.34-0.26-3.61c0.34-1.14,1.01-1.31,2.13-0.75
		c0-2.59-0.52-5.01,0.16-7.67c3.34,0.84,6.52,1.63,9.69,2.44c3.54,0.89,7.05,1.91,10.62,2.64c1.61,0.33,3.21,0.57,4.74,1.22
		c0.49,0.21,1.14-0.01,1.71,0.03c1.32,0.1,2.64,0.23,4.17,0.37c-0.03,0.03,0.17-0.2,0.44-0.52c4.09,6.22,6.33,13.12,8.48,20.06
		c0.2-0.05,0.4-0.11,0.6-0.16c-0.1-0.66-0.07-1.36-0.31-1.97c-1.24-3.18-0.74-6.44-0.47-9.67c0.07-0.89,0.49-1.85,1.68-1.81
		c1.32,0.04,1.49-0.77,1.49-1.78c-0.01-0.98,0-1.97,0-3.04c5.75,0.84,11.27,0.6,16.78,0.66c3.08,0.03,6.16,0.18,9.23,0.19
		c1.9,0.01,3.82-0.05,5.71-0.24c4.36-0.45,8.7-1.16,13.08-1.46c5.88-0.4,11.54-1.85,17.24-3.14c1.68-0.38,3.42-0.54,5.12-0.85
		c1.13-0.2,2.26-0.42,3.36-0.75c2.93-0.86,5.84-1.78,8.75-2.68c0.87-0.27,1.7-0.7,2.59-0.84c1.24-0.2,2.54-0.39,3.77-0.26
		c1.18,0.13,1.66,1.38,1.09,2.48c-1.6,3.1-3.21,6.21-4.92,9.26c-0.47,0.84-1.21,1.59-1.98,2.18c-2.01,1.53-4.16,2.89-6.13,4.47
		c-0.54,0.43-0.64,1.39-0.91,2.01c1.2,1.39,2.44,0.6,4.04,0.18c-1.25,2.25-2.43,4.01-3.24,5.92c-1.49,3.49-4.29,5.58-7.39,7.5
		c0.23,0.38,0.45,0.76,0.84,1.41c-5.83,0.97-11.46,1.93-17.1,2.82c-2.36,0.37-4.78,1.02-7.1,0.78c-3.11-0.33-6.05-0.08-9.04,0.65
		c-0.58,0.14-1.28-0.33-1.94-0.38c-0.63-0.06-1.36-0.12-1.9,0.14c-0.93,0.46-1.58,0.34-2.15-0.48c-0.62-0.9-1.43-0.97-2.42-0.7
		c-2.4,0.66-2.47,0.61-3.85-1.34c-0.14-0.19-0.34-0.33-0.62-0.59c-0.4,0.59-0.89,1.07-1.1,1.65c-0.69,1.93-2.15,2.35-3.96,2.27
		c-7.14-0.33-14.31-0.32-21.41-1.06c-8.33-0.86-16.59-2.37-24.89-3.61c-0.49-0.07-0.97-0.23-1.45-0.38c-1.04-0.32-1.58-1-1.13-2.06
		c0.41-0.98,0.01-1.63-0.69-2.16c-2.84-2.14-3.42-5.61-5.01-8.49C208.68,479.54,208.93,478.87,208.97,478.09z"/>
	<path d="M275.31,428.48c0.54-2.1,1.94-3,4.14-2.98c4.14,0.04,8.28-0.08,12.43-0.04c4.96,0.04,9.92,0.02,14.86,0.31
		c4.72,0.28,9.42,0.89,14.11,1.44c5.6,0.65,11.17,1.46,16.77,2.07c1.99,0.22,4.03,0.03,6.16,0.03c-0.72,2.35-2.37,4.29-4.56,5.59
		c-2.11,1.26-4.46,2.18-6.77,3.06c-3.5,1.34-6.97,2.69-9.74,5.38c-0.49,0.47-1.32,0.83-2,0.83c-4.82-0.02-9.65-0.15-14.47-0.26
		c-0.3-0.01-0.6-0.21-1.35-0.48c2.72-0.47,5-0.87,7.27-1.26c0.01-0.14,0.03-0.27,0.04-0.41c-0.24-0.08-0.49-0.22-0.73-0.22
		c-4.32,0.05-8.64,0.17-12.96,0.13c-0.8-0.01-1.75-0.51-2.37-1.07c-4.65-4.22-9.74-7.76-15.48-10.3
		C278.96,429.54,277.11,429.08,275.31,428.48z"/>
	<path d="M298.19,450.48c-1.5,0.36-3.01,0.69-4.51,1.08c-6.2,1.59-12.5,2.7-18.9,2.61c-5.95-0.08-11.9-0.65-17.85-1.08
		c-3.28-0.23-6.56-0.61-9.93-0.93c0.29-1.25,1.25-1.12,1.83-1.09c4.41,0.24,7.56-2.02,10.33-5.04c1.05-1.14,2.3-1.63,3.78-1.51
		c2.89,0.24,5.79,0.42,8.65,0.86c4.24,0.65,8.45,1.5,12.67,2.29c0.98,0.18,1.96,0.37,2.9,0.69c3.27,1.13,6.63,1.47,10.06,1.38
		c0.29-0.01,0.58,0.08,0.87,0.12C298.14,450.07,298.17,450.28,298.19,450.48z"/>
	<path d="M285.43,439.84c0.31,0.69,0.57,1.25,1,2.19c-3.78-0.05-7.21-0.91-10.68-1.18c-3.45-0.27-6.89-0.64-10.53-0.98
		c0.5-1.34,1.57-1.63,2.4-1.82c2.15-0.51,3.59-1.98,5.03-3.41c1.2-1.19,2.41-1.66,4-1c1.45,0.6,3.06,0.95,4.32,1.83
		c2.66,1.86,5.64,2.74,8.68,3.57c1.05,0.29,2.02,0.84,3.03,1.26c-0.07,0.2-0.13,0.4-0.2,0.61
		C290.18,440.55,287.88,440.21,285.43,439.84z"/>
</g>
</svg>
