<svg id="图层_1" data-name="图层 1" xmlns="http://www.w3.org/2000/svg" xmlns:xlink="http://www.w3.org/1999/xlink" viewBox="0 0 200 200"><defs><style>.cls-1{fill:none;}.cls-2{opacity:0.18;}.cls-3{opacity:0.23;}.cls-4{opacity:0.2;}.cls-5{fill:url(#乱石板);}</style><pattern id="乱石板" data-name="乱石板" width="200" height="200" patternUnits="userSpaceOnUse" viewBox="0 0 200 200"><rect class="cls-1" width="200" height="200"/><path class="cls-2" d="M223.08,213.77c-1.46-5.13-9-6.66-12.81-9.59-4.56-3.5-10.42-6.29-15.94-3-4.7,2.81-5.78,8.32-6.26,13.35-.43,4.37-1.34,10.57.17,15.23.5,5.49,5.87,8.13,11.13,6.48,2.88-.9,5-2.95,7-5.08a33.66,33.66,0,0,1,7.46-5.92C217.82,222.88,224.7,219.48,223.08,213.77Z"/><path class="cls-3" d="M85.22,203.71C77.81,201,69.45,198,61.68,196.55c-5.74-1.05-11.48,4.13-12,9.84a4.33,4.33,0,0,0-1.11,3.37q.38,6.38.76,12.76c.18,3.12,0,6.81,1.77,9.55,3.9,5.89,13.09,4,19,3.85,6.55-.16,13.79.4,19.25-3.91,4.71-3.72,7.65-10.53,8.42-16.41C98.66,208.31,90.82,205.77,85.22,203.71Z"/><path class="cls-2" d="M141.47,225.28c.07-4.11.32-8.28.22-12.38-.06-2.16-.11-4.39-1.55-6.13-1.72-2.08-4.5-2.67-7-3.47l-11.52-3.78c-5.31-1.74-9.26-3.83-12.77,1.51a62.46,62.46,0,0,0-7.21,15.15c-2.12,3.73-6.93,10.6-3.42,13.78,2.06,1.85,5.84,2.35,8.36,3.11,3.86,1.16,7.77,2.19,11.7,3.07q5.46,1.23,11,2.12c2.37.37,7,1.79,9.4,1C143.26,237.78,141.41,228.76,141.47,225.28Z"/><path class="cls-2" d="M112,191.69c-2.32-2.48-5.91-.23-8.35,1a40.83,40.83,0,0,1-7,3.26c-2.85.82-6.13.63-9.09,1.07a2.44,2.44,0,0,0-.26.06c-2.69-.44-3.72,3.93-.86,4.94q4.94,1.72,9.83,3.52c2.33.86,4.53,2.2,6.93.92,2-1,3.39-3.42,4.7-5.16,1.67-2.2,3.67-4.6,4.7-7.19A2.47,2.47,0,0,0,112,191.69Z"/><path class="cls-3" d="M162.84,185.57a11.2,11.2,0,0,0-4.55,3.36,2.8,2.8,0,0,0-1,.32c-3.15,1.63-8.41,3.27-11.3,5.9a2.59,2.59,0,0,0-2.92,2.39c-.46,6.51,1.92,12.66.85,19.22-.37,2.28,2.31,4.41,4.18,2.43a103.08,103.08,0,0,0,11.67-14.75,42.75,42.75,0,0,0,4.07-7.1c1.11-2.82,1-5.86,2.12-8.7C166.64,186.86,164.51,185,162.84,185.57Z"/><path class="cls-2" d="M137.34,187.87a63,63,0,0,0-11.06.61c-2.64.3-5.56.34-7.86,1.77a2.59,2.59,0,0,0,1,4.7,14.83,14.83,0,0,0,5.35,3.51,93.93,93.93,0,0,0,9.26,4.21c5,1.68,6.76-4.14,8.23-7.89C143.91,190.61,141.43,188.14,137.34,187.87Z"/><path class="cls-2" d="M23.08,213.77c-1.46-5.13-9-6.66-12.81-9.59-4.56-3.5-10.42-6.29-15.94-3-4.7,2.81-5.78,8.32-6.26,13.35-.43,4.37-1.34,10.57.17,15.23.5,5.49,5.87,8.13,11.13,6.48,2.88-.9,5-2.95,7-5.08a33.66,33.66,0,0,1,7.46-5.92C17.82,222.88,24.7,219.48,23.08,213.77Z"/><path class="cls-2" d="M46,192.34c-2.81-1.54-5.89-2.5-8.68-4.17s-4.88-3.74-7.44-5.42c-4.44-2.91-9.78-.42-14.45.71C11,184.53,4.74,185.39,4,191c-.7,5.23,4.16,8.73,7.85,11.46,2.56,1.89,5.25,3.59,7.88,5.36,2.15,1.45,4.4,3.71,7.06,4.16a3.37,3.37,0,0,0,4.67.89C36.2,209.9,57.68,198.77,46,192.34Z"/><path class="cls-2" d="M182.11,200.05a5,5,0,0,0-1.81-.05,2.16,2.16,0,0,0-.74-.12,18.11,18.11,0,0,0-4.1.68,31.42,31.42,0,0,0-7.82,1.76c-.3,0-.61,0-.92.05a2.34,2.34,0,0,0-.26,0,2,2,0,0,0-2.33.71c-1.3,1.58-3.27,3.24-3.83,5.26a2.54,2.54,0,0,0,1.75,3.07c2.3.73,5.4.08,7.81,0l8.52-.22c3-.08,8.45.84,8.4-3.63C186.75,205.17,184.62,200.68,182.11,200.05Z"/><path class="cls-2" d="M232,47.84a3.82,3.82,0,0,0-.52-.55c-3-2.71-6-5.56-9.17-8.14-1.06-.88-3.19-1.88-3.86-2.45a18,18,0,0,0-2.18-2.1c-4.71-2.64-11.69,2.25-16.22,5.57-2.17.31-4,1.48-4.86,4.41A41.6,41.6,0,0,0,193.85,57a5.33,5.33,0,0,0-.33,1.55c-.34,4.91-2.66,13.39.74,17.47,1.62,1.93,4.23,2.75,6.44,3.78,2.48,1.15,5.39,3,8.21,3,5.54,0,9-6.88,11.82-10.62,4-5.22,9.39-10.58,12.37-16.43C234.84,52.39,234.05,49.71,232,47.84Z"/><path class="cls-2" d="M223.08,13.77c-1.46-5.13-9-6.66-12.81-9.59-4.56-3.5-10.42-6.29-15.94-3-4.7,2.81-5.78,8.32-6.26,13.35-.43,4.37-1.34,10.57.17,15.23.5,5.49,5.87,8.13,11.13,6.48,2.88-.9,5-3,7-5.08a33.66,33.66,0,0,1,7.46-5.92C217.82,22.88,224.7,19.48,223.08,13.77Z"/><path class="cls-2" d="M99.79,82.57c-1.32-3.15-4.09-5-6.57-7.14a79.45,79.45,0,0,1-8.15-8.26c-3.49-4.08-7.4-10.08-13.28-8.71a4.42,4.42,0,0,0-2.57,1q-5.4,4-10.8,8.07c-2.64,2-5.57,3.9-7.28,6.81-3.32,5.63-.56,11.71,4.32,15.25,3.16,2.3,6.2,4,9.14,6.62,2.14,1.89,4.43,3.69,7.25,4.42,6.9,1.79,14.39-2.78,20.54-5.39C97.61,93,102.41,88.77,99.79,82.57Z"/><path class="cls-2" d="M149.81,63.54c-1.61-4.1-1.87-9.07-3.92-12.89-4.58-8.54-17.5-8.45-25.61-10.8-4.72-1.38-9.26-3.26-13.91-4.87-3.84-1.34-8.6-3.49-12.62-1.72s-6.91,6.82-9.51,10.34c-3,4.12-5.63,7.38-3.23,12.53,2.09,4.47,5.87,8.33,9.12,12,3.71,4.16,7.38,8.35,11.46,12.15a5.21,5.21,0,0,0,1.63,1h0a29.88,29.88,0,0,0,4.2,3.4,23.37,23.37,0,0,0,6.47,4.6c5,2.32,9.41.67,14.31-.92s10-3.34,15-5.14c3.73-1.35,8.23-2.49,9.64-6.71S151.29,67.29,149.81,63.54Z"/><path class="cls-3" d="M116.12,99.92c-.12-1.23-.26-2.47-.42-3.7s-.2-2.69-1.11-3.69a8.18,8.18,0,0,0-3.07-1.66l-4-1.69a12.17,12.17,0,0,0-2.33-.89,2.56,2.56,0,0,0-1.29-.07c-1.16.26-1.87,1.31-2.6,2.17s-1.65,1.9-2.44,2.87a3.54,3.54,0,0,0-.55,3.61,7.22,7.22,0,0,0,1.35,2.8,15.59,15.59,0,0,0,2.74,2.32,59.32,59.32,0,0,0,6.07,4,6.68,6.68,0,0,0,3.06,1.19,3.25,3.25,0,0,0,1.67-.43c.43-.26.75-.66,1.17-.91a6.72,6.72,0,0,0,1.3-.68,2.18,2.18,0,0,0,.69-1.6A27.68,27.68,0,0,0,116.12,99.92Z"/><path class="cls-4" d="M142.84,95.64c-.33-1.34-.62-3.14-1.55-4.3A3.49,3.49,0,0,0,139.75,89c-1.41-.81-2.94,0-4.27.55l-4.71,2L122,95.26a4.17,4.17,0,0,0-2.14,1c-1,1.08-.46,2.48,0,3.69s1,2.58,1.53,3.86,1.14,2.52,1.78,3.76a20.38,20.38,0,0,0,2.11,3.65c1.78,2.15,4.82,1.24,7.2.94l4.13-.53a32.79,32.79,0,0,0,4.21-.58c2.84-.73,3-3.3,2.86-5.77C144.75,102.27,143.58,98.64,142.84,95.64Z"/><path class="cls-2" d="M117.43,118.46c-1.36-5.86-10.37-9.16-15-12a25.66,25.66,0,0,0-5.63-3.08,3.94,3.94,0,0,0-3-1c-7.54.76-13.78,5-19.93,9.17-4.33,2.92-11.73,6.38-11,12.52.42,3.73,2.46,7.75,3.74,11.27,1,2.8,1.77,6.68,4.51,8.41,2.39,1.51,5.42.8,8,.56L91.93,143c3.52-.33,7.79-.18,11.08-1.58,2.63-1.13,3.92-3.21,5.5-5.49C111.6,131.48,118.81,124.42,117.43,118.46Z"/><path class="cls-2" d="M151.58,115c-1.92-1.77-4.39-1.81-6.82-1.48-1.32.18-2.63.39-3.94.6a26.2,26.2,0,0,0-6.16.9c-4.14-.2-9.51-.4-12,3.11a34.16,34.16,0,0,0-5.17,14.06,5,5,0,0,0,2.47,4.32c2.85,1.79,6.68,2.43,9.89,3.39s7,2.58,10.5,3c6.7.89,8.5-6.35,10.33-11.4C152.3,127.05,156,119.11,151.58,115Z"/><path class="cls-3" d="M170.13,89.83c-3.43-3.86-9.22-11-15.39-9.43a7.92,7.92,0,0,0-3.85,3c-1.68,1.27-4,1.73-5.17,3.9-1.7,3.22-.68,7.51-.41,10.91.25,3,.43,5.59,2.13,8.19a84.66,84.66,0,0,0,7.33,8.86c4,4.62,9.44,7.1,14.61,2.58,4.15-3.64,11.28-9.34,10.84-15.55C179.82,96.57,173.53,93.66,170.13,89.83Z"/><path class="cls-4" d="M70.12,104.47a84.56,84.56,0,0,1-12.8-9.16c-2.36-1.9-5.13-5.37-8.42-5.12A2.64,2.64,0,0,0,46.49,92c-1.35,3.53,2,8.6,2.74,12.17,1,4.51.68,11.18,3,15.21,1.28,2.26,2.87,2.51,4.58,1.71a3.65,3.65,0,0,0,2.26-.49c3.92-2.18,7.38-7.62,10.41-10.89a2.37,2.37,0,0,0,.53-.95C71.48,107.92,72.08,105.53,70.12,104.47Z"/><path class="cls-2" d="M189.27,63.22a2.51,2.51,0,0,0-.48-1.44c0-.11,0-.22,0-.32A4.36,4.36,0,0,0,186,56.67c-1.67-.73-3.62-.93-5.34-1.6-2.16-.84-3.94-2.12-6-3.11-3.26-1.57-6-.9-9.39,0-3.23.89-8.65,1.89-11.18,4.26-1.59,1.49-1.41,3-.82,4.72a2.17,2.17,0,0,0-.34,1.83,2.46,2.46,0,0,0,0,.81,43,43,0,0,0,3.25,9.87,1.78,1.78,0,0,0,.52.63,10.22,10.22,0,0,0,2.3,2.76c4.89,4.09,10,7.93,15,11.89a2.61,2.61,0,0,0,2.75.46,4.25,4.25,0,0,0,1.83-.68,2.34,2.34,0,0,0,1.53-.72c2.69-2.65,7.16-5.68,8.37-9.41C190,73.9,189.38,67.89,189.27,63.22Z"/><path class="cls-3" d="M66.85,146.25c-1.43-4.11-3.49-8.07-5.26-12-1.13-2.53-2-5.88-4.67-7.17s-6.89.14-9.72.75a127.22,127.22,0,0,0-12.59,3.43c-.46.13-.91.28-1.35.44l-.5.16a4,4,0,0,0-.83.4,17.69,17.69,0,0,0-7,6.05A159.18,159.18,0,0,0,12.54,159.2c-2.46,4.9-4.82,11.33-.17,15.84,2.05,2,5.18,2.7,7.81,3.55,3.67,1.17,7.33,2.54,11.06,3.51,7.21,1.89,14.5-1.25,21.43-3.12,2.53-.69,5.56-1.2,7.45-3.2s2.61-5.37,3.52-7.94C66.17,160.66,69.5,153.88,66.85,146.25Z"/><path class="cls-3" d="M138.13,144.43c-3-1.73-7-2-10.33-2.66L114.2,139a3.64,3.64,0,0,0-3,.67,7.37,7.37,0,0,0-4.47,2.57c-3.3,3.46-6.67,8.54-4.7,13.44,2.29,5.71,9.67,5.39,14.19,8.41,5.25,3.5,7.59,9.36,14.76,9,5.37-.29,11.46-2.58,12.13-8.44S144.14,147.88,138.13,144.43Z"/><path class="cls-2" d="M110.1,170.66c-4.41-7.32-10.41-14.63-15.81-21.26-4.67-5.73-12.48-2.14-18.74-1a3.13,3.13,0,0,0-2.65,3.73c-2.73,3-4.05,7.54-4.75,11.18-.64,3.32-.88,6.7-1.43,10-.5,3-2,6.11-2.07,9.16-.13,5,4.28,11.25,8.5,13.72A10.81,10.81,0,0,0,81,197.3c1.58-.33,3-1.07,4.61-1.41,2.12-.46,4.25-.08,6.37-.29,6.16-.59,9-5.57,12.43-10.08C107.75,181.18,113.53,176.37,110.1,170.66Z"/><path class="cls-2" d="M50.06,120.2c-1-3.4-2.59-8.86-5.51-11.15s-5.74.71-7.57,3-13.75,16-5.38,17.06c3.78.49,8.74-2,12-3.63a15.37,15.37,0,0,0,3.63-2.2A2.41,2.41,0,0,0,50.06,120.2Z"/><path class="cls-2" d="M41.89,88.41C38.59,84.06,30,86,25.22,86a2.24,2.24,0,0,0-2.13,1.29,4.89,4.89,0,0,0-1.12.56c-2.44,1.67-3.6,5.17-5,7.67s-3.35,5.15-4.13,7.94c-1.06,3.76.5,7.88,4.79,8.3,3.87.37,7.65-.74,11.65-.25,1.87.23,3.6.7,5.35-.35,1.91-1.15,3.13-3.72,4.62-5.26,1.73-1.79,4.32-3,5.67-5.15C47.22,97.18,44.08,91.3,41.89,88.41Z"/><path class="cls-3" d="M183.25,126.68c-1.74-2.42-4.13-6.6-7.53-6.55-2.05,0-4.25,1.5-6.06,2.15a50.07,50.07,0,0,1-9.51,2.27,2.79,2.79,0,0,0-.34.09l-.46-.16a2.48,2.48,0,0,0-2.43.65c-1.91,2.33-4.5,7.14-4.38,10.29.15,3.75,4.56,7.84,6.92,10.39,2.69,2.91,6.57,7.52,10.45,8.85,3.73,1.29,6.84-2.49,9.13-4.91,2.69-2.84,7.58-7.37,8.29-11.38S185.46,129.78,183.25,126.68Z"/><path class="cls-4" d="M170.06,160.37c-.2-2.55-2.37-3.54-4.37-4.53-3.1-1.56-5.48-4-8-6.33-1.84-1.76-4-4.31-6.49-5a2.56,2.56,0,0,0-2,.26,2.34,2.34,0,0,0-2.54,2.41,108.21,108.21,0,0,0,.91,12.84c.35,2.57.43,5.79,1.78,8.09,3.53,6,11.89-.53,16-2.59C167.61,164.37,170.28,163.32,170.06,160.37Z"/><path class="cls-3" d="M27.29,115.92c-2.87-2.75-10.69-1.78-14.32-2a2.22,2.22,0,0,0-2.41,2.31,5.31,5.31,0,0,0-1.51,2.52s0,0,0,0a31.39,31.39,0,0,0-2.68,8.92C4.74,131.34,3.64,135.53,5,139a2.94,2.94,0,0,0,1.76,1.6A5.52,5.52,0,0,0,10,142.63c3.17,1,7,3.1,9.42,0,1.5-1.92,2.11-5.07,3-7.32l3.39-9C26.79,123.59,30.09,118.6,27.29,115.92Z"/><path class="cls-2" d="M208.06,144.1a15.69,15.69,0,0,1-7.11-4.62c-1-1.14-1.69-2.68-3.1-3.39a4.08,4.08,0,0,0-4.43.87,7.84,7.84,0,0,0-.81.82,22.32,22.32,0,0,0-5.12,5,4.24,4.24,0,0,0-.92,3.92c.48,1.38,1.84,2.36,3,3.22s2.3,1.65,3.38,2.57a15.1,15.1,0,0,1,2.77,3.25c1.44,2.17,3.1,4.44,5.92,4.69a9,9,0,0,0,4.56-1.07,52.94,52.94,0,0,0,4.9-2.41,4.59,4.59,0,0,0,2.32-3.28,31.76,31.76,0,0,0,.52-5.33C213.92,144.76,210.62,144.89,208.06,144.1Z"/><path class="cls-4" d="M135.38,182.57a7.41,7.41,0,0,0-2.34-1.43,28.56,28.56,0,0,1-7.16-5c-3-2.9-5.32-6.42-9.32-8a1.48,1.48,0,0,0-1.45.37,1.56,1.56,0,0,0-1.89,1.83c1,4.26,3,8.23,4.72,12.21.78,1.78,1.41,3.8,3.44,4.46,1.79.59,4,.17,5.79.07l3.31-.18a20.92,20.92,0,0,0,3.45-.25A2.43,2.43,0,0,0,135.38,182.57Z"/><path class="cls-2" d="M158.34,180q-2.86-2-5.87-3.89c-1.13-.7-2.28-1.38-3.43-2-1-.56-2.1-1.42-3.27-1.41s-2.44,1-3.48,1.58l-3.73,2.19a1.55,1.55,0,0,0-.28.2,2,2,0,0,0-.46.36c-1.53,1.63.88,4.43,1.92,5.69,1.5,1.81,3.06,3.59,4.62,5.36,1.19,1.35,3,3.51,4.94,3.65,1.11.08,1.74-.7,2.56-1.3a17.15,17.15,0,0,1,3-1.61,11.72,11.72,0,0,0,4.84-3.55,4.06,4.06,0,0,0,.89-2.62C160.47,181.27,159.31,180.63,158.34,180Z"/><path class="cls-3" d="M46.51,69.58c-.15-3.48-.11-7.1-.59-10.55-.45-3.2-3.69-4.09-6.22-2.48a33.63,33.63,0,0,0-3.41,2.78c-1.28,1.09-2.55,2.19-3.81,3.32A68,68,0,0,0,20,76.6c-1.1,1.73-4.16,5.72-1,7a3.85,3.85,0,0,0,2.35,0,10,10,0,0,0,5.41.12c.61,0,1.21,0,1.82,0a1.49,1.49,0,0,0,.42-.08c1.24,0,2.48-.08,3.71-.2a23.56,23.56,0,0,0,2.38-.09,4,4,0,0,0,1.46,0,1.32,1.32,0,0,0,.29,0,37.16,37.16,0,0,0,5.25-.79.66.66,0,0,0,.15-.05c.22,0,.44,0,.66-.08a4.81,4.81,0,0,0,1.15-.42l.15,0a1.87,1.87,0,0,0,.52-.12,1.59,1.59,0,0,0,.9-.69s0-.07,0-.1A1.36,1.36,0,0,0,46,80.4,53.65,53.65,0,0,0,46.51,69.58Z"/><path class="cls-2" d="M50.19,84.88c-.44-.74-.88-1.54-1.81-1.73a6.87,6.87,0,0,0-2.61.29l-2.29.43a1.34,1.34,0,0,0-.91.72,1.35,1.35,0,0,0-.58.66,1.49,1.49,0,0,0,.08,1.33,6.19,6.19,0,0,0,5.73,3c1.4-.11,3.5-.72,3.42-2.5A5.13,5.13,0,0,0,50.19,84.88Z"/><path class="cls-2" d="M32,47.84a3.82,3.82,0,0,0-.52-.55c-3-2.71-6-5.56-9.17-8.14-1.06-.88-3.19-1.88-3.86-2.45a18,18,0,0,0-2.18-2.1C11.57,32,4.59,36.85.06,40.17c-2.17.31-4,1.48-4.86,4.41A41.6,41.6,0,0,0-6.15,57a5.33,5.33,0,0,0-.33,1.55C-6.82,63.47-9.14,72-5.74,76-4.12,78-1.51,78.78.7,79.81c2.48,1.15,5.39,3,8.21,3,5.54,0,9-6.88,11.82-10.62,4-5.22,9.39-10.58,12.37-16.43C34.84,52.39,34.05,49.71,32,47.84Z"/><path class="cls-4" d="M15.54,84.31a7.87,7.87,0,0,0-3.51,1L8.66,86.92a1.43,1.43,0,0,0-.72,1.47,9.08,9.08,0,0,0,1.22,5,9,9,0,0,0,1.19,4.57,1.52,1.52,0,0,0,2.59,0A36.87,36.87,0,0,0,15,94.7a15,15,0,0,0,3.36-5.32,1,1,0,0,0,.06-.39l.16-.23C19.75,86.59,17.73,84.38,15.54,84.31Z"/><path class="cls-2" d="M61.65,39.48c-3,.22-8.77,0-10.51,3-.82,1.4-.76,4.27-.94,5.8-.07.59-.13,1.16-.18,1.74a2.57,2.57,0,0,0-.6,1.37q-.54,4.28-1.1,8.53c-.22,1.74-.93,4.25,0,5.92,1.43,2.59,4.61,2,6.53.55,4.07-3,8.07-6.68,11.87-10a31.89,31.89,0,0,0,8.39-10.73C79.1,36.57,66.86,39.07,61.65,39.48Z"/><path class="cls-2" d="M184.91,14.69c-5-2.24-10.71-1.55-16.1-1.6-4.43,0-10.43-1.3-14.15,1.79S148,23.52,146,28c-.92,2.06-2.51,5-2.54,7.27a6.54,6.54,0,0,0,1.29,3.45c1.21,4,1.85,11.64,7.08,12.47,2.55.41,5.22-1.19,7.5-2.14l10.31-4.3c4.13-1.72,12.23-3.2,14.2-7.77.93-2.15.8-5.14,1-7.43q.65-6.33,1.28-12.66A2.41,2.41,0,0,0,184.91,14.69Z"/><path class="cls-3" d="M192.61,39.58c-1.75-2.1-4.35-.33-6.24.56L178.16,44a4.81,4.81,0,0,0-1.78.2,3.22,3.22,0,0,0-1.59,5.06c1.74,2.12,5.3,3.41,7.76,4.45,2,.84,5.1,2.58,7.17,1.1s2-5.59,2.47-7.76S194.19,41.49,192.61,39.58Z"/><path class="cls-4" d="M47.39,32.18c-.16-4.07-.27-8.17-.68-12.22-.29-2.86-.42-7.06-2.25-9.39-2.22-2.81-4.83-1.73-7.07.08a2.4,2.4,0,0,0-1.45.66c-3.35,3-6.8,6-10,9.1-1.78,1.71-4.41,4-4.58,6.64C21.2,28.8,22,29.82,23,31.14c2.75,3.63,6.36,6.91,9.44,10.27,2.74,3,7.7,11.66,12.76,8.33C49.87,46.64,47.56,36.61,47.39,32.18Z"/><path class="cls-3" d="M85.22,3.71C77.81,1,69.45-2,61.68-3.45c-5.74-1-11.48,4.13-12,9.84a4.33,4.33,0,0,0-1.11,3.37q.38,6.37.76,12.76c.18,3.12,0,6.81,1.77,9.55,3.9,5.89,13.09,4,19,3.85,6.55-.16,13.79.4,19.25-3.91C94,28.29,96.92,21.48,97.69,15.6,98.66,8.31,90.82,5.77,85.22,3.71Z"/><path class="cls-2" d="M141.47,25.28c.07-4.11.32-8.28.22-12.38-.06-2.16-.11-4.39-1.55-6.13-1.72-2.08-4.5-2.67-7-3.47L121.66-.48C116.35-2.22,112.4-4.31,108.89,1a62.46,62.46,0,0,0-7.21,15.15c-2.12,3.73-6.93,10.6-3.42,13.78,2.06,1.85,5.84,2.35,8.36,3.11,3.86,1.16,7.77,2.19,11.7,3.07q5.46,1.23,11,2.12c2.37.37,7,1.79,9.4,1C143.26,37.78,141.41,28.76,141.47,25.28Z"/><path class="cls-2" d="M112-8.31c-2.32-2.48-5.91-.23-8.35,1a40.83,40.83,0,0,1-7,3.26c-2.85.82-6.13.63-9.09,1.07a2.44,2.44,0,0,0-.26.06C84.61-3.35,83.58,1,86.44,2q4.94,1.73,9.83,3.52c2.33.86,4.53,2.2,6.93.92,2-1,3.39-3.42,4.7-5.16,1.67-2.2,3.67-4.6,4.7-7.19A2.47,2.47,0,0,0,112-8.31Z"/><path class="cls-3" d="M162.84-14.43a11.2,11.2,0,0,0-4.55,3.36,2.8,2.8,0,0,0-1,.32c-3.15,1.63-8.41,3.27-11.3,5.9A2.59,2.59,0,0,0,143-2.46c-.46,6.51,1.92,12.66.85,19.22-.37,2.28,2.31,4.41,4.18,2.43A103.08,103.08,0,0,0,159.72,4.44a42.75,42.75,0,0,0,4.07-7.1c1.11-2.82,1-5.86,2.12-8.7C166.64-13.14,164.51-15,162.84-14.43Z"/><path class="cls-2" d="M137.34-12.13a63,63,0,0,0-11.06.61c-2.64.3-5.56.34-7.86,1.77a2.59,2.59,0,0,0,1,4.7,14.83,14.83,0,0,0,5.35,3.51,93.93,93.93,0,0,0,9.26,4.21c5,1.68,6.76-4.14,8.23-7.89C143.91-9.39,141.43-11.86,137.34-12.13Z"/><path class="cls-3" d="M115,180.51c-.93-1.45-3.47-1.79-4.32,0a9.42,9.42,0,0,1-2.88,3.7,2.85,2.85,0,0,0-1.22,2.29,2.49,2.49,0,0,0,1.78,2.91,33.82,33.82,0,0,0,4.38.42c1.52,0,3.15,0,4-1.49C118,186.1,116.2,182.44,115,180.51Z"/><path class="cls-2" d="M23.08,13.77c-1.46-5.13-9-6.66-12.81-9.59C5.71.68-.15-2.11-5.67,1.19c-4.7,2.81-5.78,8.32-6.26,13.35-.43,4.37-1.34,10.57.17,15.23.5,5.49,5.87,8.13,11.13,6.48,2.88-.9,5-3,7-5.08a33.66,33.66,0,0,1,7.46-5.92C17.82,22.88,24.7,19.48,23.08,13.77Z"/><path class="cls-2" d="M46-7.66c-2.81-1.54-5.89-2.5-8.68-4.17s-4.88-3.74-7.44-5.42c-4.44-2.91-9.78-.42-14.45.71C11-15.47,4.74-14.61,4-9,3.3-3.81,8.16-.31,11.85,2.42,14.41,4.31,17.1,6,19.73,7.78c2.15,1.45,4.4,3.71,7.06,4.16a3.37,3.37,0,0,0,4.67.89C36.2,9.9,57.68-1.23,46-7.66Z"/><path class="cls-2" d="M197.13,161.71c-.88-1.82-3-3.28-4.38-4.64l-5.7-5.5a3.67,3.67,0,0,0-5.56.48,3.55,3.55,0,0,0-2.51,1.64l-9,14.38c-1.66,2.66.59,5.32,3.24,5.65a42.83,42.83,0,0,1,7.59,1.66c1.75.54,3.53,1.59,5.33,1.83,4,.52,5.67-3.4,7.51-6.19C195.39,168.41,198.76,165.06,197.13,161.71Z"/><path class="cls-2" d="M187.4,179.72c-2.49-2.44-7.84-2.79-11-3.8-4.46-1.4-8.84-3-13.17-4.76-2.59-1-4.32,1-4.47,3.16a3.6,3.6,0,0,0,.77,3.79c2.2,2.24,5.53,4.73,7.32,7.65.92,2.68.22,5.57-.43,8.33a3.72,3.72,0,0,0,3.07,4.58,5.25,5.25,0,0,0,2,.72c3.32.45,5.62-2.16,7.82-4.29C182.41,192.1,192.5,184.73,187.4,179.72Z"/><path class="cls-4" d="M209.45,175.85a56.69,56.69,0,0,0-2.26-12.31,2.51,2.51,0,0,0-3.67-1.49c-4.72,3.35-7.09,10.1-9.8,15a2.46,2.46,0,0,0,1.18,3.47c1.15,2,2.78,4.87,4.81,5.62,2.71,1,5.6-2.2,7.45-3.65C209.64,180.57,209.67,179,209.45,175.85Z"/><path class="cls-3" d="M194.74,184.26a2.67,2.67,0,0,0-4.69.73,70.34,70.34,0,0,0-4.45,5.59c-1.12,1.58-2.18,2.95-1.4,4.91a13.8,13.8,0,0,0,4,5.19c1.43,1,2.72.65,4.07-.25,2-1.31,3.83-2.71,5.93-3.84,1.67-.9,3.8-1.73,3.83-4C202.1,189,196.56,186.86,194.74,184.26Z"/><path class="cls-2" d="M182.11.05a5,5,0,0,0-1.81,0,2.16,2.16,0,0,0-.74-.12,18.11,18.11,0,0,0-4.1.68,31.42,31.42,0,0,0-7.82,1.76c-.3,0-.61,0-.92.05a2.34,2.34,0,0,0-.26,0,2,2,0,0,0-2.33.71c-1.3,1.58-3.27,3.24-3.83,5.26a2.54,2.54,0,0,0,1.75,3.07c2.3.73,5.4.08,7.81,0l8.52-.22c3-.08,8.45.84,8.4-3.63C186.75,5.17,184.62.68,182.11.05Z"/><path class="cls-2" d="M64.71,188.15a62.24,62.24,0,0,0-3.82-5.07c-1.11-1.33-2.55-3.77-4.56-3.41a27.24,27.24,0,0,0-3.4,1.05l-3.75,1.18-7.72,2.43a1.56,1.56,0,0,0-.13,2.89,46,46,0,0,0,5.31,4.23c1,.69,2,1.36,3.08,2a9,9,0,0,0,1.35.76,1.35,1.35,0,0,0,.8.46,42.57,42.57,0,0,0,8.87.88,1.63,1.63,0,0,0,.69-.15q.33.08.66.12c1.72.24,4,0,4.59-2S65.77,189.7,64.71,188.15Z"/><path class="cls-4" d="M209.38,100.27c-.52-2.36-1.26-4.66-1.78-7a22.71,22.71,0,0,1-.52-3.47,10.29,10.29,0,0,0-.32-3.46,1.84,1.84,0,0,0-.15-.28,1.2,1.2,0,0,0-.47-1.28,31.65,31.65,0,0,0-12.3-6.49c-2.63-.64-4,1.22-5.64,3q-2.74,2.92-5.41,5.91c-.86,1-1.71,1.94-2.56,2.92a5.23,5.23,0,0,0-1.6,2.74c-.22,2.17,1.91,3.33,2.82,5s1.38,3.59,2.75,5,3.55,2,5.59,2.22a43.89,43.89,0,0,1,7.17,1.4,67.8,67.8,0,0,0,7.16,1.86c2,.34,4.8,1,5.68-1.49C210.52,104.9,209.82,102.24,209.38,100.27Z"/><path class="cls-2" d="M207.38,110.91a31.33,31.33,0,0,0-4.65-.77l-9.27-1.49-5.13-.83c-1.45-.23-3.3-.85-4.76-.46s-2.17,1.68-3,2.76-1.55,2.08-2.33,3.11a3.45,3.45,0,0,0-.49.27,1.64,1.64,0,0,0-.69,1.78,1.38,1.38,0,0,0,.74,1.08q2.86,3.92,5.77,7.82c1,1.3,2,2.59,2.93,3.89a49.18,49.18,0,0,0,3.29,4.32,2.33,2.33,0,0,0,.58.45,10.25,10.25,0,0,0,.86,1.16c1.06,1.17,2.27.7,3.5.12a20.22,20.22,0,0,0,3.41-1.73,9.3,9.3,0,0,0,2.45-3.17q2.22-3.91,4.28-7.93,1-2,2-4a22.43,22.43,0,0,0,1.85-4A2,2,0,0,0,207.38,110.91Z"/><path class="cls-2" d="M8.06,144.1A15.69,15.69,0,0,1,1,139.48c-1-1.14-1.69-2.68-3.1-3.39a4.08,4.08,0,0,0-4.43.87,7.84,7.84,0,0,0-.81.82,22.32,22.32,0,0,0-5.12,5,4.24,4.24,0,0,0-.92,3.92c.48,1.38,1.84,2.36,2.95,3.22s2.3,1.65,3.38,2.57a15.1,15.1,0,0,1,2.77,3.25c1.44,2.17,3.1,4.44,5.92,4.69a9,9,0,0,0,4.56-1.07,52.94,52.94,0,0,0,4.9-2.41,4.59,4.59,0,0,0,2.32-3.28,31.76,31.76,0,0,0,.52-5.33C13.92,144.76,10.62,144.89,8.06,144.1Z"/><path class="cls-4" d="M9.45,175.85a56.69,56.69,0,0,0-2.26-12.31,2.51,2.51,0,0,0-3.67-1.49c-4.72,3.35-7.09,10.1-9.8,15a2.46,2.46,0,0,0,1.18,3.47c1.15,2,2.78,4.87,4.81,5.62,2.71,1,5.6-2.2,7.45-3.65C9.64,180.57,9.67,179,9.45,175.85Z"/><path class="cls-3" d="M-5.26,184.26a2.67,2.67,0,0,0-4.69.73,70.34,70.34,0,0,0-4.45,5.59c-1.12,1.58-2.18,2.95-1.4,4.91a13.8,13.8,0,0,0,4,5.19c1.43,1,2.72.65,4.07-.25,2-1.31,3.83-2.71,5.93-3.84,1.67-.9,3.8-1.73,3.83-4C2.1,189-3.44,186.86-5.26,184.26Z"/><path class="cls-4" d="M9.38,100.27c-.52-2.36-1.26-4.66-1.78-7a22.71,22.71,0,0,1-.52-3.47,10.29,10.29,0,0,0-.32-3.46A1.84,1.84,0,0,0,6.61,86a1.2,1.2,0,0,0-.47-1.28,31.65,31.65,0,0,0-12.3-6.49c-2.63-.64-4,1.22-5.64,3q-2.75,2.92-5.41,5.91c-.86,1-1.71,1.94-2.56,2.92a5.23,5.23,0,0,0-1.6,2.74c-.22,2.17,1.91,3.33,2.82,5s1.38,3.59,2.75,5,3.55,2,5.59,2.22A43.89,43.89,0,0,1-3,106.5a67.8,67.8,0,0,0,7.16,1.86c2,.34,4.8,1,5.68-1.49C10.52,104.9,9.82,102.24,9.38,100.27Z"/><path class="cls-2" d="M7.38,110.91a31.33,31.33,0,0,0-4.65-.77l-9.27-1.49-5.13-.83c-1.45-.23-3.3-.85-4.76-.46s-2.17,1.68-3,2.76-1.55,2.08-2.33,3.11a3.45,3.45,0,0,0-.49.27,1.64,1.64,0,0,0-.69,1.78,1.38,1.38,0,0,0,.74,1.08q2.87,3.92,5.77,7.82c1,1.3,1.95,2.59,2.93,3.89a49.18,49.18,0,0,0,3.29,4.32,2.33,2.33,0,0,0,.58.45A10.25,10.25,0,0,0-8.74,134c1.06,1.17,2.27.7,3.5.12a20.22,20.22,0,0,0,3.41-1.73,9.3,9.3,0,0,0,2.45-3.17q2.22-3.91,4.28-7.93,1-2,2-4a22.43,22.43,0,0,0,1.85-4A2,2,0,0,0,7.38,110.91Z"/><path class="cls-3" d="M194.74-15.74a2.67,2.67,0,0,0-4.69.73,70.34,70.34,0,0,0-4.45,5.59c-1.12,1.58-2.18,3-1.4,4.91a13.8,13.8,0,0,0,4,5.19c1.43,1,2.72.65,4.07-.25,2-1.31,3.83-2.71,5.93-3.84,1.67-.9,3.8-1.73,3.83-4C202.1-11,196.56-13.14,194.74-15.74Z"/><path class="cls-3" d="M-5.26-15.74A2.67,2.67,0,0,0-9.95-15,70.34,70.34,0,0,0-14.4-9.42c-1.12,1.58-2.18,3-1.4,4.91a13.8,13.8,0,0,0,4,5.19c1.43,1,2.72.65,4.07-.25,2-1.31,3.83-2.71,5.93-3.84C-.12-4.31,2-5.14,2-7.4,2.1-11-3.44-13.14-5.26-15.74Z"/></pattern></defs><rect class="cls-5" width="200" height="200"/></svg>